<?xml version="1.0" encoding="UTF-8"?>
<svg id="Layer_2" data-name="Layer 2" xmlns="http://www.w3.org/2000/svg" viewBox="0 0 1200 630">
  <defs>
    <style>
      .cls-1 {
        fill: #36ef79;
      }

      .cls-2 {
        fill: #fafaf9;
      }

      .cls-3 {
        fill: #fd982e;
      }

      .cls-4 {
        fill: #1f1f1f;
        stroke: #7d53fa;
        stroke-miterlimit: 10;
        stroke-width: 5px;
      }

      .cls-5 {
        fill: #7d53fa;
      }
    </style>
  </defs>
  <g id="Layer_1-2" data-name="Layer 1">
    <g>
      <g>
        <rect class="cls-5" x=".5" y=".5" width="1199" height="629"/>
        <path d="M1199,1v628H1V1h1198M1200,0H0v630h1200V0h0Z"/>
      </g>
      <g>
        <path class="cls-2" d="M778.03,181.29h33.46v33.46h-33.46v-33.46ZM815.21,214.76h33.46v-33.46h-33.46v33.46ZM815.21,251.94h33.46v-33.46h-33.46v33.46Z"/>
        <path class="cls-2" d="M518.18,181.29h33.46v33.46h-33.46v-33.46ZM555.36,214.76h33.46v-33.46h-33.46v33.46ZM592.54,214.76h33.46v-33.46h-33.46v33.46ZM629.72,214.76h33.46v-33.46h-33.46v33.46ZM592.54,251.94h33.46v-33.46h-33.46v33.46ZM592.54,289.12h33.46v-33.46h-33.46v33.46ZM592.54,326.3h33.46v-33.46h-33.46v33.46Z"/>
        <path class="cls-2" d="M184.42,181.29h33.46v33.46h-33.46v-33.46ZM221.6,214.76h33.46v-33.46h-33.46v33.46ZM258.78,214.76h33.46v-33.46h-33.46v33.46ZM295.96,214.76h33.46v-33.46h-33.46v33.46ZM184.42,251.94h33.46v-33.46h-33.46v33.46ZM295.96,251.94h33.46v-33.46h-33.46v33.46ZM184.42,289.12h33.46v-33.46h-33.46v33.46ZM295.96,289.12h33.46v-33.46h-33.46v33.46ZM221.6,326.3h33.46v-33.46h-33.46v33.46ZM258.78,326.3h33.46v-33.46h-33.46v33.46Z"/>
        <path class="cls-2" d="M685.49,181.29h33.46v33.46h-33.46v-33.46ZM722.67,214.76h33.46v-33.46h-33.46v33.46ZM722.67,251.94h33.46v-33.46h-33.46v33.46ZM722.67,289.12h33.46v-33.46h-33.46v33.46ZM648.31,326.3h33.46v-33.46h-33.46v33.46ZM685.49,326.3h33.46v-33.46h-33.46v33.46ZM722.67,326.3h33.46v-33.46h-33.46v33.46Z"/>
        <path class="cls-2" d="M870.58,181.29h33.46v33.46h-33.46v-33.46ZM982.12,214.76h33.46v-33.46h-33.46v33.46ZM870.58,251.94h33.46v-33.46h-33.46v33.46ZM907.76,251.94h33.46v-33.46h-33.46v33.46ZM982.12,251.94h33.46v-33.46h-33.46v33.46ZM870.58,289.12h33.46v-33.46h-33.46v33.46ZM944.94,289.12h33.46v-33.46h-33.46v33.46ZM870.58,326.3h33.46v-33.46h-33.46v33.46ZM982.12,326.3h33.46v-33.46h-33.46v33.46Z"/>
        <path class="cls-2" d="M351.14,181.29h33.46v33.46h-33.46v-33.46ZM388.32,214.76h33.46v-33.46h-33.46v33.46ZM425.5,214.76h33.46v-33.46h-33.46v33.46ZM462.68,214.76h33.46v-33.46h-33.46v33.46ZM462.68,251.94h33.46v-33.46h-33.46v33.46ZM351.14,289.12h33.46v-33.46h-33.46v33.46ZM425.5,289.12h33.46v-33.46h-33.46v33.46ZM462.68,289.12h33.46v-33.46h-33.46v33.46ZM351.14,326.3h33.46v-33.46h-33.46v33.46ZM388.32,363.48h33.46v-33.46h-33.46v33.46ZM351.14,363.48h33.46v-33.46h-33.46v33.46Z"/>
      </g>
      <g>
        <circle class="cls-4" cx="600" cy="101.88" r="57.77"/>
        <path class="cls-2" d="M570.88,72.76h13.44v13.44h-13.44v-13.44ZM615.68,86.2h13.44v-13.44h-13.44v13.44ZM570.88,101.14h13.44v-13.44h-13.44v13.44ZM585.81,101.14h13.44v-13.44h-13.44v13.44ZM615.68,101.14h13.44v-13.44h-13.44v13.44ZM570.88,116.07h13.44v-13.44h-13.44v13.44ZM600.75,116.07h13.44v-13.44h-13.44v13.44ZM570.88,131.01h13.44v-13.44h-13.44v13.44ZM615.68,131.01h13.44v-13.44h-13.44v13.44Z"/>
      </g>
      <g>
        <g>
          <path class="cls-3" d="M417.87,446.11h20.32v20.32h-20.32v-20.32ZM438.18,466.43h20.32v-20.32h-20.32v20.32ZM438.18,486.75h20.32v-20.32h-20.32v20.32Z"/>
          <path class="cls-3" d="M515.36,446.11h20.32v20.32h-20.32v-20.32ZM474.72,486.75h20.32v-20.32h-20.32v20.32ZM515.36,486.75h20.32v-20.32h-20.32v20.32ZM474.72,507.07h20.32v-20.32h-20.32v20.32ZM515.36,507.07h20.32v-20.32h-20.32v20.32ZM515.36,527.39h20.32v-20.32h-20.32v20.32ZM454.4,527.39h20.32v-20.32h-20.32v20.32ZM474.72,527.39h20.32v-20.32h-20.32v20.32ZM495.04,527.39h20.32v-20.32h-20.32v20.32Z"/>
          <path class="cls-3" d="M326.11,446.11h20.32v20.32h-20.32v-20.32ZM387.06,466.43h20.32v-20.32h-20.32v20.32ZM346.42,486.75h20.32v-20.32h-20.32v20.32ZM326.11,486.75h20.32v-20.32h-20.32v20.32ZM387.06,486.75h20.32v-20.32h-20.32v20.32ZM366.74,507.07h20.32v-20.32h-20.32v20.32ZM326.11,527.39h20.32v-20.32h-20.32v20.32ZM346.42,527.39h20.32v-20.32h-20.32v20.32ZM366.74,527.39h20.32v-20.32h-20.32v20.32ZM387.06,527.39h20.32v-20.32h-20.32v20.32Z"/>
          <path class="cls-3" d="M274.98,446.11h20.32v20.32h-20.32v-20.32ZM295.3,466.43h20.32v-20.32h-20.32v20.32ZM295.3,486.75h20.32v-20.32h-20.32v20.32ZM295.3,507.07h20.32v-20.32h-20.32v20.32ZM295.3,527.39h20.32v-20.32h-20.32v20.32Z"/>
          <path class="cls-3" d="M197.81,446.11h20.32v20.32h-20.32v-20.32ZM218.13,466.43h20.32v-20.32h-20.32v20.32ZM238.44,466.43h20.32v-20.32h-20.32v20.32ZM238.44,486.75h20.32v-20.32h-20.32v20.32ZM238.44,507.07h20.32v-20.32h-20.32v20.32ZM197.81,527.39h20.32v-20.32h-20.32v20.32ZM218.13,527.39h20.32v-20.32h-20.32v20.32ZM238.44,527.39h20.32v-20.32h-20.32v20.32ZM258.76,527.39h20.32v-20.32h-20.32v20.32Z"/>
        </g>
        <g>
          <path class="cls-3" d="M591.52,446.11h20.32v20.32h-20.32v-20.32ZM611.84,466.43h20.32v-20.32h-20.32v20.32ZM611.84,486.75h20.32v-20.32h-20.32v20.32Z"/>
          <path class="cls-3" d="M731.75,446.11h20.32v20.32h-20.32v-20.32ZM792.7,466.43h20.32v-20.32h-20.32v20.32ZM731.75,486.75h20.32v-20.32h-20.32v20.32ZM752.07,486.75h20.32v-20.32h-20.32v20.32ZM792.7,486.75h20.32v-20.32h-20.32v20.32ZM731.75,507.07h20.32v-20.32h-20.32v20.32ZM772.38,507.07h20.32v-20.32h-20.32v20.32ZM731.75,527.39h20.32v-20.32h-20.32v20.32ZM792.7,527.39h20.32v-20.32h-20.32v20.32Z"/>
          <path class="cls-3" d="M953.25,466.43h20.32v-20.32h-20.32v20.32ZM973.56,466.43h20.32v-20.32h-20.32v20.32ZM932.93,486.75h20.32v-20.32h-20.32v20.32ZM993.88,486.75h20.32v-20.32h-20.32v20.32ZM993.88,466.43h20.32v-20.32h-20.32v20.32ZM932.93,507.07h20.32v-20.32h-20.32v20.32ZM993.88,507.07h20.32v-20.32h-20.32v20.32ZM932.93,527.39h20.32v-20.32h-20.32v20.32ZM973.56,527.39h20.32v-20.32h-20.32v20.32ZM993.88,527.39h20.32v-20.32h-20.32v20.32Z"/>
          <path class="cls-3" d="M641.32,446.11h20.32v20.32h-20.32v-20.32ZM661.64,466.43h20.32v-20.32h-20.32v20.32ZM681.95,466.43h20.32v-20.32h-20.32v20.32ZM681.95,486.75h20.32v-20.32h-20.32v20.32ZM681.95,507.07h20.32v-20.32h-20.32v20.32ZM641.32,527.39h20.32v-20.32h-20.32v20.32ZM661.64,527.39h20.32v-20.32h-20.32v20.32ZM681.95,527.39h20.32v-20.32h-20.32v20.32ZM702.27,527.39h20.32v-20.32h-20.32v20.32Z"/>
          <path class="cls-3" d="M822.18,446.11h20.32v20.32h-20.32v-20.32ZM862.82,466.43h20.32v-20.32h-20.32v20.32ZM903.45,466.43h20.32v-20.32h-20.32v20.32ZM822.18,486.75h20.32v-20.32h-20.32v20.32ZM862.82,486.75h20.32v-20.32h-20.32v20.32ZM903.45,486.75h20.32v-20.32h-20.32v20.32ZM822.18,507.07h20.32v-20.32h-20.32v20.32ZM842.5,507.07h20.32v-20.32h-20.32v20.32ZM903.45,507.07h20.32v-20.32h-20.32v20.32ZM842.5,527.39h20.32v-20.32h-20.32v20.32ZM862.82,527.39h20.32v-20.32h-20.32v20.32ZM883.13,527.39h20.32v-20.32h-20.32v20.32Z"/>
        </g>
      </g>
      <g>
        <g>
          <path class="cls-1" d="M411.86,440.11h20.32v20.32h-20.32v-20.32ZM432.18,460.43h20.32v-20.32h-20.32v20.32ZM432.18,480.75h20.32v-20.32h-20.32v20.32Z"/>
          <path class="cls-1" d="M509.35,440.11h20.32v20.32h-20.32v-20.32ZM468.72,480.75h20.32v-20.32h-20.32v20.32ZM509.35,480.75h20.32v-20.32h-20.32v20.32ZM468.72,501.06h20.32v-20.32h-20.32v20.32ZM509.35,501.06h20.32v-20.32h-20.32v20.32ZM509.35,521.38h20.32v-20.32h-20.32v20.32ZM448.4,521.38h20.32v-20.32h-20.32v20.32ZM468.72,521.38h20.32v-20.32h-20.32v20.32ZM489.03,521.38h20.32v-20.32h-20.32v20.32Z"/>
          <path class="cls-1" d="M320.1,440.11h20.32v20.32h-20.32v-20.32ZM381.06,460.43h20.32v-20.32h-20.32v20.32ZM340.42,480.75h20.32v-20.32h-20.32v20.32ZM320.1,480.75h20.32v-20.32h-20.32v20.32ZM381.06,480.75h20.32v-20.32h-20.32v20.32ZM360.74,501.06h20.32v-20.32h-20.32v20.32ZM320.1,521.38h20.32v-20.32h-20.32v20.32ZM340.42,521.38h20.32v-20.32h-20.32v20.32ZM360.74,521.38h20.32v-20.32h-20.32v20.32ZM381.06,521.38h20.32v-20.32h-20.32v20.32Z"/>
          <path class="cls-1" d="M268.98,440.11h20.32v20.32h-20.32v-20.32ZM289.29,460.43h20.32v-20.32h-20.32v20.32ZM289.29,480.75h20.32v-20.32h-20.32v20.32ZM289.29,501.06h20.32v-20.32h-20.32v20.32ZM289.29,521.38h20.32v-20.32h-20.32v20.32Z"/>
          <path class="cls-1" d="M191.8,440.11h20.32v20.32h-20.32v-20.32ZM212.12,460.43h20.32v-20.32h-20.32v20.32ZM232.44,460.43h20.32v-20.32h-20.32v20.32ZM232.44,480.75h20.32v-20.32h-20.32v20.32ZM232.44,501.06h20.32v-20.32h-20.32v20.32ZM191.8,521.38h20.32v-20.32h-20.32v20.32ZM212.12,521.38h20.32v-20.32h-20.32v20.32ZM232.44,521.38h20.32v-20.32h-20.32v20.32ZM252.76,521.38h20.32v-20.32h-20.32v20.32Z"/>
        </g>
        <g>
          <path class="cls-1" d="M585.52,440.11h20.32v20.32h-20.32v-20.32ZM605.84,460.43h20.32v-20.32h-20.32v20.32ZM605.84,480.75h20.32v-20.32h-20.32v20.32Z"/>
          <path class="cls-1" d="M725.75,440.11h20.32v20.32h-20.32v-20.32ZM786.7,460.43h20.32v-20.32h-20.32v20.32ZM725.75,480.75h20.32v-20.32h-20.32v20.32ZM746.06,480.75h20.32v-20.32h-20.32v20.32ZM786.7,480.75h20.32v-20.32h-20.32v20.32ZM725.75,501.06h20.32v-20.32h-20.32v20.32ZM766.38,501.06h20.32v-20.32h-20.32v20.32ZM725.75,521.38h20.32v-20.32h-20.32v20.32ZM786.7,521.38h20.32v-20.32h-20.32v20.32Z"/>
          <path class="cls-1" d="M947.24,460.43h20.32v-20.32h-20.32v20.32ZM967.56,460.43h20.32v-20.32h-20.32v20.32ZM926.92,480.75h20.32v-20.32h-20.32v20.32ZM987.88,480.75h20.32v-20.32h-20.32v20.32ZM987.88,460.43h20.32v-20.32h-20.32v20.32ZM926.92,501.06h20.32v-20.32h-20.32v20.32ZM987.88,501.06h20.32v-20.32h-20.32v20.32ZM926.92,521.38h20.32v-20.32h-20.32v20.32ZM967.56,521.38h20.32v-20.32h-20.32v20.32ZM987.88,521.38h20.32v-20.32h-20.32v20.32Z"/>
          <path class="cls-1" d="M635.31,440.11h20.32v20.32h-20.32v-20.32ZM655.63,460.43h20.32v-20.32h-20.32v20.32ZM675.95,460.43h20.32v-20.32h-20.32v20.32ZM675.95,480.75h20.32v-20.32h-20.32v20.32ZM675.95,501.06h20.32v-20.32h-20.32v20.32ZM635.31,521.38h20.32v-20.32h-20.32v20.32ZM655.63,521.38h20.32v-20.32h-20.32v20.32ZM675.95,521.38h20.32v-20.32h-20.32v20.32ZM696.27,521.38h20.32v-20.32h-20.32v20.32Z"/>
          <path class="cls-1" d="M816.18,440.11h20.32v20.32h-20.32v-20.32ZM856.81,460.43h20.32v-20.32h-20.32v20.32ZM897.45,460.43h20.32v-20.32h-20.32v20.32ZM816.18,480.75h20.32v-20.32h-20.32v20.32ZM856.81,480.75h20.32v-20.32h-20.32v20.32ZM897.45,480.75h20.32v-20.32h-20.32v20.32ZM816.18,501.06h20.32v-20.32h-20.32v20.32ZM836.49,501.06h20.32v-20.32h-20.32v20.32ZM897.45,501.06h20.32v-20.32h-20.32v20.32ZM836.49,521.38h20.32v-20.32h-20.32v20.32ZM856.81,521.38h20.32v-20.32h-20.32v20.32ZM877.13,521.38h20.32v-20.32h-20.32v20.32Z"/>
        </g>
      </g>
    </g>
  </g>
</svg>