<?xml version="1.0" encoding="UTF-8"?>
<svg id="Layer_2" data-name="Layer 2" xmlns="http://www.w3.org/2000/svg" viewBox="0 0 2901.23 880.07">
  <defs>
    <style>
      .cls-1 {
        fill: #1abcfd;
      }

      .cls-2 {
        fill: #fff;
      }

      .cls-3 {
        fill: #fafaf9;
      }
    </style>
  </defs>
  <g id="Layer_1-2" data-name="Layer 1">
    <g>
      <g>
        <circle class="cls-2" cx="440.04" cy="440.04" r="440.04"/>
        <circle class="cls-1" cx="440.04" cy="440.04" r="321.27"/>
        <circle cx="440.04" cy="440.04" r="147.33"/>
      </g>
      <g>
        <path class="cls-3" d="M1152.08,389.72h-22.03v-70.78h-33.31v42.5c0,17.69-11.1,28.28-28.97,28.28h-11.62l3.47-17.87h8.85c3.3,0,6.25-3.82,6.25-10.41v-31.75l2.78-10.76h-11.8l3.47-17.87h77.37c2.95,0,5.55,2.26,5.55,5.03v83.62ZM1205.11,348.09l-22.03,3.47v-32.61h-14.05l3.64-17.87h26.89c3.12,0,5.55,2.08,5.55,4.86v42.16ZM1312.13,389.72h-22.03v-70.78h-33.31v42.5c0,17.69-11.1,28.28-28.97,28.28h-11.62l3.47-17.87h8.85c3.3,0,6.25-3.82,6.25-10.41v-31.75l2.78-10.76h-11.8l3.47-17.87h77.37c2.95,0,5.55,2.26,5.55,5.03v83.62ZM1364.24,389.72h-22.03v-70.78h-13.88l3.47-17.87h26.89c3.12,0,5.55,2.26,5.55,5.03v83.62ZM1432.23,301.07l-3.47,17.87h-15.96l10.58,70.78h-22.9l-8.15-59.85,2.95-10.93h-15.09l3.47-17.87h48.57ZM1532.85,389.72h-21.86v-70.78h-36.95v70.78h-21.86v-60.02l2.6-10.76h-10.58l3.47-17.87h79.8c2.95,0,5.38,2.26,5.38,5.03v83.62ZM1677.43,389.72h-22.03v-70.78h-33.31v42.5c0,17.69-11.1,28.28-28.97,28.28h-11.62l3.47-17.87h8.85c3.3,0,6.25-3.82,6.25-10.41v-31.75l2.78-10.76h-11.8l3.47-17.87h77.37c2.95,0,5.55,2.26,5.55,5.03v83.62ZM1766.31,389.72h-22.03v-70.78h-50.66l3.47-17.87h63.67c3.12,0,5.55,2.26,5.55,5.03v83.62ZM1818.41,389.72h-22.03v-70.78h-13.88l3.47-17.87h26.89c3.12,0,5.55,2.26,5.55,5.03v83.62ZM1948.55,354.85c0,22.73-25.5,36.26-51.87,36.26s-48.92-9.19-51.18-10.06v-62.11h-10.41l3.47-17.87h23.42c2.95,0,5.38,2.26,5.38,5.03v62.28c2.78.69,15.96,3.99,29.32,3.99,20.3,0,29.84-9.02,29.84-17.35v-36.08h-11.28l3.47-17.87h24.29c3.12,0,5.55,2.26,5.55,5.03v48.75ZM1906.91,341.49l-5.03,19.26h-16.65v-41.81h-9.19l3.47-17.87h21.86c3.12,0,5.55,2.26,5.55,5.03v35.39ZM2026.66,389.72h-23.59l30.71-70.61h-36.6v94.37l-22.03,3.64v-87.09l2.78-10.93h-10.58l3.47-18.04h84.83c8.85,0,4.16,12.84,3.64,15.96l-32.61,72.69ZM2164.38,389.72h-22.03v-70.78h-33.31v42.5c0,17.69-11.1,28.28-28.97,28.28h-11.62l3.47-17.87h8.85c3.3,0,6.25-3.82,6.25-10.41v-31.75l2.78-10.76h-11.8l3.47-17.87h77.37c2.95,0,5.55,2.26,5.55,5.03v83.62ZM2258.46,316.69l-37.3,73.03h-23.59l35.39-70.78h-45.97c-4.34,0-6.42-3.12-6.42-6.25v-30.01l22.03-3.64v22.03h50.31c3.12,0,5.55,2.43,5.55,5.38v10.24ZM2389.85,389.72h-22.03v-60.2c0-6.94-2.26-10.58-9.71-10.58h-49.27l3.47-17.87h49.44c18.74,0,28.1,10.93,28.1,28.45v60.2ZM2332.43,389.72h-22.03v-45.8l22.03-3.47v49.27ZM2467.77,389.72h-23.59l30.71-70.61h-36.6v94.37l-22.03,3.64v-87.09l2.78-10.93h-10.58l3.47-18.04h84.83c8.85,0,4.16,12.84,3.64,15.96l-32.61,72.69ZM2593.39,316.69l-37.3,73.03h-23.59l35.39-70.78h-45.97c-4.34,0-6.42-3.12-6.42-6.25v-30.01l22.03-3.64v22.03h50.31c3.12,0,5.55,2.43,5.55,5.38v10.24ZM2695.41,389.72h-21.86v-70.78h-36.95v70.78h-21.86v-60.02l2.6-10.76h-10.58l3.47-17.87h79.8c2.95,0,5.38,2.26,5.38,5.03v83.62ZM2799.56,377.4l-4.86,12.32h-43.2l3.3-17.87h22.73v-38.34c0-7.29-4.86-14.57-13.88-14.57h-16.65l-7.98,70.78h-22.38l7.81-60.37,4.34-10.41h-15.27l3.47-17.87h46.67c22.21,0,35.91,14.23,35.91,32.44v43.89ZM2901.23,389.72h-22.03v-60.2c0-6.94-2.26-10.58-9.71-10.58h-49.27l3.47-17.87h49.44c18.74,0,28.1,10.93,28.1,28.45v60.2ZM2843.81,389.72h-22.03v-45.8l22.03-3.47v49.27Z"/>
        <g>
          <path class="cls-3" d="M1082.71,450.21v53.29h65.26v-53.29h16.49v123.93h-16.49v-56.76h-65.26v56.76h-16.49v-123.93h16.49Z"/>
          <path class="cls-3" d="M1192.06,468.26v-18.05h14.75v18.05h-14.75ZM1206.81,484.4v89.74h-14.75v-89.74h14.75Z"/>
          <path class="cls-3" d="M1222.08,464.09v-13.89h99.11v13.89h-41.31v110.05h-16.49v-110.05h-41.31Z"/>
        </g>
        <path class="cls-3" d="M1379.33,574.32l-13.53,21.86-4.51-2.08,5.9-19.95c-2.78-1.91-4.68-4.86-4.68-8.5,0-5.55,4.51-10.06,10.06-10.06s9.89,4.51,9.89,10.06c0,3.12-1.73,6.42-3.12,8.67ZM1476.9,561.83l-2.08,12.32h-75.81l2.26-12.32h46.32c1.39,0,2.26-1.21,2.26-2.6v-46.67c0-8.33-3.12-14.75-13.18-14.75h-36.43l2.08-12.32h37.99c16.31,0,24.46,9.71,24.46,27.24v34.7l-2.95,12.32c-.35.87.52,2.08,1.56,2.08h13.53ZM1513.83,574.14h-15.09v-73.73c0-1.91-.35-2.6-2.08-2.6h-11.1l2.26-12.32h23.94c1.21,0,2.08.87,2.08,2.08v86.57ZM1609.35,485.5l-2.26,12.32h-3.99l-14.57,27.41-8.33,7.63c-1.39,1.21-1.21,2.6,0,3.82l26.37,25.15-2.08,12.32h-69.22l2.08-12.32h46.15c2.08,0,2.26-1.91.87-2.95l-18.91-15.96-33.83-53.08,12.14-7.98,26.02,43.54c1.04,1.56,2.43,1.39,3.12,0l19.6-39.9h16.83ZM1650.28,532.68l-15.09,2.6v-34.87c0-1.91-.35-2.6-2.08-2.6h-11.1l2.26-12.32h23.94c1.21,0,2.08.87,2.08,2.08v45.1ZM1741.08,537.54c0,15.09-10.24,25.67-22.9,30.19l-45.8,15.61,2.43-14.4,21.34-7.11c1.21-.52,1.56-1.56.69-2.78l-7.46-11.62-13.18-48.05c-.17-1.04-1.04-1.56-1.91-1.56h-6.42l2.26-12.32h14.92c1.91,0,2.95,1.56,3.12,2.6l18.22,68.7c.35.87.87,1.56,2.08,1.21,8.85-2.95,17.69-7.63,17.69-20.47v-37.12c0-1.91-.35-2.6-2.26-2.6h-8.85l2.08-12.32h22.03c1.04,0,1.91.87,1.91,2.08v49.96ZM1829.95,497.81l-36.6,76.33h-15.96l34.7-73.55c.87-1.56.17-2.78-1.56-2.78h-48.57c-2.08,0-2.95-1.21-2.95-3.12v-28.97l15.09-2.6v19.78c0,1.91.35,2.6,2.26,2.6h53.43c1.04,0,1.91.87,1.91,2.08l-1.73,10.24ZM1958.91,574.14h-15.09v-61.58c0-8.33-2.95-14.75-13.18-14.75h-45.1l2.26-12.32h46.49c16.48,0,24.63,9.71,24.63,27.24v61.41ZM1901.49,574.14h-15.09v-48.57l15.09-2.6v51.18ZM2066.04,544.13c0,17.87-13.01,31.75-38.69,31.75-21.68,0-39.73-12.84-39.73-12.84v-63.49c0-1.21-.69-1.73-2.08-1.73h-9.02l2.26-12.32h21.86c1.04,0,2.08.87,2.08,2.08v67.83s11.45,7.46,24.46,7.46c16.65,0,23.77-8.15,23.77-18.56v-40.25l.69-7.29h-1.04l-23.25,23.77-10.41-10.58,23.77-23.25c.87-.87,1.73-1.21,2.95-1.21h20.3c1.04,0,2.08.87,2.08,2.08v56.55ZM2154.92,497.81l-36.6,76.33h-15.96l34.7-73.55c.87-1.56.17-2.78-1.56-2.78h-48.57c-2.08,0-2.95-1.21-2.95-3.12v-28.97l15.09-2.6v19.78c0,1.91.35,2.6,2.26,2.6h53.43c1.04,0,1.91.87,1.91,2.08l-1.73,10.24ZM2198.65,574.14h-15.09v-73.73c0-1.91-.35-2.6-2.08-2.6h-11.1l2.26-12.32h23.94c1.21,0,2.08.87,2.08,2.08v86.57ZM2306.47,497.81l-36.6,76.33h-16.13l34.7-73.55c.87-1.56.35-2.78-1.39-2.78h-41.98c-1.73,0-2.6.87-2.6,2.6v98.02l-15.09,2.6v-87.78l3.12-13.01c.35-1.56-.17-2.43-1.73-2.43h-8.5l2.26-12.32h83.62c1.04,0,2.08.87,1.91,2.08l-1.56,10.24ZM2396.02,546.73c0,15.09-10.76,27.41-27.06,27.41h-45.28l2.26-12.32h36.43c13.7,0,18.74-6.42,18.74-18.04v-43.37c0-1.91-.35-2.6-2.26-2.6h-32.09c-1.39,0-2.43.87-2.6,2.26l-2.95,26.2c-.17,1.21,0,2.43,1.21,2.43h13.18l-2.26,12.32h-25.5c-1.21,0-2.26-.52-2.08-1.73l2.95-26.02,4.51-12.84c.52-1.73,0-2.6-1.73-2.6h-7.81l2.26-12.32h68.18c1.04,0,1.91.87,1.91,2.08v59.16ZM2493.79,574.14h-15.09v-61.58c0-8.33-2.95-14.75-13.18-14.75h-45.1l2.26-12.32h46.49c16.48,0,24.63,9.71,24.63,27.24v61.41ZM2436.37,574.14h-15.09v-48.57l15.09-2.6v51.18Z"/>
      </g>
    </g>
  </g>
</svg>