<svg width="497" height="38" viewBox="0 0 497 38" fill="none" xmlns="http://www.w3.org/2000/svg">
<g filter="url(#filter0_d_5_105)">
<rect width="54" height="34" rx="5" fill="#EEEEEE" shape-rendering="crispEdges"/>
<rect x="0.5" y="0.5" width="53" height="33" rx="4.5" stroke="#111111" shape-rendering="crispEdges"/>
<path d="M22.1041 20H20.7041V14.4H16.5041V13H22.1041V20ZM17.9041 20H16.5041V15.8H17.9041V20ZM29.8014 20H24.2014V18.6H28.4014V14.4H25.6014V15.8H27.0014V17.2H24.2014V13H29.8014V20ZM37.4986 20H34.6986V18.6H36.0986V14.4H33.2986V20H31.8986V13H37.4986V20Z" fill="#050505"/>
</g>
<g filter="url(#filter1_d_5_105)">
<rect x="70" width="93" height="34" rx="5" fill="#EEEEEE" shape-rendering="crispEdges"/>
<rect x="70.5" y="0.5" width="92" height="33" rx="4.5" stroke="#111111" shape-rendering="crispEdges"/>
<path d="M92.0055 20H86.4055V18.6H90.6055V14.4H86.4055V10.2H87.8055V13H92.0055V20ZM98.3027 14.4H96.9027V20H95.5027V14.4H94.1027V13H98.3027V14.4ZM106.005 20H103.205V18.6H104.605V14.4H101.805V20H100.405V13H106.005V20ZM117.905 20H116.505V14.4H113.705V20H110.905V18.6H112.305V13H117.905V20ZM122.811 17.2H121.411V14.4H120.011V13H122.811V17.2ZM127.705 17.2H126.305V14.4H124.905V13H127.705V17.2ZM134 20H132.6V17.2H131.2V20H129.8V15.8H132.6V14.4H129.8V13H134V20ZM138.903 20H137.503V14.4H136.103V13H138.903V20ZM146.597 20H140.997V18.6H142.397V13H143.797V18.6H145.197V13H146.597V20Z" fill="#050505"/>
</g>
<g filter="url(#filter2_d_5_105)">
<rect x="179" width="71" height="34" rx="5" fill="#EEEEEE" shape-rendering="crispEdges"/>
<rect x="179.5" y="0.5" width="70" height="33" rx="4.5" stroke="#111111" shape-rendering="crispEdges"/>
<path d="M200.861 20H199.461V14.4H195.261V13H200.861V20ZM196.661 20H195.261V15.8H196.661V20ZM205.758 17.2H204.358V14.4H202.958V13H205.758V17.2ZM210.653 17.2H209.253V14.4H207.853V13H210.653V17.2ZM218.347 20H216.947V14.4H212.747V13H218.347V20ZM226.045 20H220.445V18.6H224.645V14.4H221.845V15.8H223.245V17.2H220.445V13H226.045V20ZM233.742 18.6H232.342V20H228.142V13H233.742V18.6ZM232.342 18.572V14.4H229.542V18.572H232.342Z" fill="#050505"/>
</g>
<g filter="url(#filter3_d_5_105)">
<rect x="266" width="72" height="34" rx="5" fill="#EEEEEE" shape-rendering="crispEdges"/>
<rect x="266.5" y="0.5" width="71" height="33" rx="4.5" stroke="#111111" shape-rendering="crispEdges"/>
<path d="M285.212 22.8H283.812V14.4H282.412V13H285.212V22.8ZM290.107 20H288.707V14.4H287.307V13H290.107V20ZM297.801 20H296.401V17.2H293.601V20H292.201V13H293.601V15.8H296.401V13H297.801V20ZM302.699 17.2H301.299V14.4H299.899V13H302.699V17.2ZM308.993 14.4H307.593V20H306.193V14.4H304.793V13H308.993V14.4ZM313.896 20H312.496V14.4H311.096V13H313.896V20ZM321.59 20H318.79V18.6H320.19V14.4H317.39V20H315.99V13H321.59V20Z" fill="#050505"/>
</g>
<g filter="url(#filter4_d_5_105)">
<rect x="354" width="89" height="34" rx="5" fill="#EEEEEE" shape-rendering="crispEdges"/>
<rect x="354.5" y="0.5" width="88" height="33" rx="4.5" stroke="#111111" shape-rendering="crispEdges"/>
<path d="M375.755 20H370.155V13H375.755V20ZM374.355 18.6V14.4H371.555V18.6H374.355ZM380.653 17.2H379.253V14.4H377.853V13H380.653V17.2ZM388.347 20H382.747V18.6H386.947V14.4H382.747V10.2H384.147V13H388.347V20ZM396.045 20H390.445V18.6H394.645V14.4H390.445V13H396.045V20ZM405.145 14.4H403.745V20H402.345V14.4H400.945V13H405.145V14.4ZM411.447 20H410.047V17.2H408.647V20H407.247V15.8H410.047V14.4H407.247V13H411.447V20ZM419.15 20H417.75V14.4H413.55V13H419.15V20ZM426.847 20H425.447V17.2H422.647V20H421.247V13H422.647V15.8H425.447V13H426.847V20Z" fill="#050505"/>
</g>
<g filter="url(#filter5_d_5_105)">
<path d="M459 4.24999C459 1.90279 460.903 0 463.25 0H488.75C491.097 0 493 1.90279 493 4.24999V29.75C493 32.0972 491.097 34 488.75 34H463.25C460.903 34 459 32.0972 459 29.75V4.24999Z" fill="#7D53FA"/>
<path d="M463.25 0.849609H488.75C490.628 0.849628 492.15 2.37225 492.15 4.25V29.75C492.15 31.6277 490.628 33.1504 488.75 33.1504H463.25C461.372 33.1504 459.85 31.6278 459.85 29.75V4.25C459.85 2.37223 461.372 0.849609 463.25 0.849609Z" stroke="#050505" stroke-width="1.7"/>
<path d="M469.625 17H482.375M469.625 21.25H482.375M469.625 12.75H482.375" stroke="#EEEEEE" stroke-width="1.7" stroke-linecap="round" stroke-linejoin="round"/>
</g>
<defs>
<filter id="filter0_d_5_105" x="0" y="0" width="58" height="38" filterUnits="userSpaceOnUse" color-interpolation-filters="sRGB">
<feFlood flood-opacity="0" result="BackgroundImageFix"/>
<feColorMatrix in="SourceAlpha" type="matrix" values="0 0 0 0 0 0 0 0 0 0 0 0 0 0 0 0 0 0 127 0" result="hardAlpha"/>
<feOffset dx="4" dy="4"/>
<feComposite in2="hardAlpha" operator="out"/>
<feColorMatrix type="matrix" values="0 0 0 0 0 0 0 0 0 0 0 0 0 0 0 0 0 0 1 0"/>
<feBlend mode="normal" in2="BackgroundImageFix" result="effect1_dropShadow_5_105"/>
<feBlend mode="normal" in="SourceGraphic" in2="effect1_dropShadow_5_105" result="shape"/>
</filter>
<filter id="filter1_d_5_105" x="70" y="0" width="97" height="38" filterUnits="userSpaceOnUse" color-interpolation-filters="sRGB">
<feFlood flood-opacity="0" result="BackgroundImageFix"/>
<feColorMatrix in="SourceAlpha" type="matrix" values="0 0 0 0 0 0 0 0 0 0 0 0 0 0 0 0 0 0 127 0" result="hardAlpha"/>
<feOffset dx="4" dy="4"/>
<feComposite in2="hardAlpha" operator="out"/>
<feColorMatrix type="matrix" values="0 0 0 0 0 0 0 0 0 0 0 0 0 0 0 0 0 0 1 0"/>
<feBlend mode="normal" in2="BackgroundImageFix" result="effect1_dropShadow_5_105"/>
<feBlend mode="normal" in="SourceGraphic" in2="effect1_dropShadow_5_105" result="shape"/>
</filter>
<filter id="filter2_d_5_105" x="179" y="0" width="75" height="38" filterUnits="userSpaceOnUse" color-interpolation-filters="sRGB">
<feFlood flood-opacity="0" result="BackgroundImageFix"/>
<feColorMatrix in="SourceAlpha" type="matrix" values="0 0 0 0 0 0 0 0 0 0 0 0 0 0 0 0 0 0 127 0" result="hardAlpha"/>
<feOffset dx="4" dy="4"/>
<feComposite in2="hardAlpha" operator="out"/>
<feColorMatrix type="matrix" values="0 0 0 0 0 0 0 0 0 0 0 0 0 0 0 0 0 0 1 0"/>
<feBlend mode="normal" in2="BackgroundImageFix" result="effect1_dropShadow_5_105"/>
<feBlend mode="normal" in="SourceGraphic" in2="effect1_dropShadow_5_105" result="shape"/>
</filter>
<filter id="filter3_d_5_105" x="266" y="0" width="76" height="38" filterUnits="userSpaceOnUse" color-interpolation-filters="sRGB">
<feFlood flood-opacity="0" result="BackgroundImageFix"/>
<feColorMatrix in="SourceAlpha" type="matrix" values="0 0 0 0 0 0 0 0 0 0 0 0 0 0 0 0 0 0 127 0" result="hardAlpha"/>
<feOffset dx="4" dy="4"/>
<feComposite in2="hardAlpha" operator="out"/>
<feColorMatrix type="matrix" values="0 0 0 0 0 0 0 0 0 0 0 0 0 0 0 0 0 0 1 0"/>
<feBlend mode="normal" in2="BackgroundImageFix" result="effect1_dropShadow_5_105"/>
<feBlend mode="normal" in="SourceGraphic" in2="effect1_dropShadow_5_105" result="shape"/>
</filter>
<filter id="filter4_d_5_105" x="354" y="0" width="93" height="38" filterUnits="userSpaceOnUse" color-interpolation-filters="sRGB">
<feFlood flood-opacity="0" result="BackgroundImageFix"/>
<feColorMatrix in="SourceAlpha" type="matrix" values="0 0 0 0 0 0 0 0 0 0 0 0 0 0 0 0 0 0 127 0" result="hardAlpha"/>
<feOffset dx="4" dy="4"/>
<feComposite in2="hardAlpha" operator="out"/>
<feColorMatrix type="matrix" values="0 0 0 0 0 0 0 0 0 0 0 0 0 0 0 0 0 0 1 0"/>
<feBlend mode="normal" in2="BackgroundImageFix" result="effect1_dropShadow_5_105"/>
<feBlend mode="normal" in="SourceGraphic" in2="effect1_dropShadow_5_105" result="shape"/>
</filter>
<filter id="filter5_d_5_105" x="459" y="0" width="37.4" height="37.4" filterUnits="userSpaceOnUse" color-interpolation-filters="sRGB">
<feFlood flood-opacity="0" result="BackgroundImageFix"/>
<feColorMatrix in="SourceAlpha" type="matrix" values="0 0 0 0 0 0 0 0 0 0 0 0 0 0 0 0 0 0 127 0" result="hardAlpha"/>
<feOffset dx="3.4" dy="3.4"/>
<feComposite in2="hardAlpha" operator="out"/>
<feColorMatrix type="matrix" values="0 0 0 0 0 0 0 0 0 0 0 0 0 0 0 0 0 0 1 0"/>
<feBlend mode="normal" in2="BackgroundImageFix" result="effect1_dropShadow_5_105"/>
<feBlend mode="normal" in="SourceGraphic" in2="effect1_dropShadow_5_105" result="shape"/>
</filter>
</defs>
</svg>
