<svg width="457" height="38" viewBox="0 0 457 38" fill="none" xmlns="http://www.w3.org/2000/svg">
<path d="M17.1041 20H15.7041V14.4H11.5041V13H17.1041V20ZM12.9041 20H11.5041V15.8H12.9041V20ZM24.8014 20H19.2014V18.6H23.4014V14.4H20.6014V15.8H22.0014V17.2H19.2014V13H24.8014V20ZM32.4986 20H29.6986V18.6H31.0986V14.4H28.2986V20H26.8986V13H32.4986V20Z" fill="#636363"/>
<path d="M77.0055 20H71.4055V18.6H75.6055V14.4H71.4055V10.2H72.8055V13H77.0055V20ZM83.3027 14.4H81.9027V20H80.5027V14.4H79.1027V13H83.3027V14.4ZM91.0055 20H88.2055V18.6H89.6055V14.4H86.8055V20H85.4055V13H91.0055V20ZM102.905 20H101.505V14.4H98.7055V20H95.9055V18.6H97.3055V13H102.905V20ZM107.811 17.2H106.411V14.4H105.011V13H107.811V17.2ZM112.705 17.2H111.305V14.4H109.905V13H112.705V17.2ZM119 20H117.6V17.2H116.2V20H114.8V15.8H117.6V14.4H114.8V13H119V20ZM123.903 20H122.503V14.4H121.103V13H123.903V20ZM131.597 20H125.997V18.6H127.397V13H128.797V18.6H130.197V13H131.597V20Z" fill="#636363"/>
<path d="M175.861 20H174.461V14.4H170.261V13H175.861V20ZM171.661 20H170.261V15.8H171.661V20ZM180.758 17.2H179.358V14.4H177.958V13H180.758V17.2ZM185.653 17.2H184.253V14.4H182.853V13H185.653V17.2ZM193.347 20H191.947V14.4H187.747V13H193.347V20ZM201.045 20H195.445V18.6H199.645V14.4H196.845V15.8H198.245V17.2H195.445V13H201.045V20ZM208.742 18.6H207.342V20H203.142V13H208.742V18.6ZM207.342 18.572V14.4H204.542V18.572H207.342Z" fill="#636363"/>
<path d="M250.212 22.8H248.812V14.4H247.412V13H250.212V22.8ZM255.107 20H253.707V14.4H252.307V13H255.107V20ZM262.801 20H261.401V17.2H258.601V20H257.201V13H258.601V15.8H261.401V13H262.801V20ZM267.699 17.2H266.299V14.4H264.899V13H267.699V17.2ZM273.993 14.4H272.593V20H271.193V14.4H269.793V13H273.993V14.4ZM278.896 20H277.496V14.4H276.096V13H278.896V20ZM286.59 20H283.79V18.6H285.19V14.4H282.39V20H280.99V13H286.59V20Z" fill="#FD982E"/>
<rect x="314.5" y="0.5" width="88" height="33" rx="4.5" fill="#EEEEEE"/>
<rect x="314.5" y="0.5" width="88" height="33" rx="4.5" stroke="#111111"/>
<path d="M335.755 20H330.155V13H335.755V20ZM334.355 18.6V14.4H331.555V18.6H334.355ZM340.653 17.2H339.253V14.4H337.853V13H340.653V17.2ZM348.347 20H342.747V18.6H346.947V14.4H342.747V10.2H344.147V13H348.347V20ZM356.045 20H350.445V18.6H354.645V14.4H350.445V13H356.045V20ZM365.145 14.4H363.745V20H362.345V14.4H360.945V13H365.145V14.4ZM371.447 20H370.047V17.2H368.647V20H367.247V15.8H370.047V14.4H367.247V13H371.447V20ZM379.15 20H377.75V14.4H373.55V13H379.15V20ZM386.847 20H385.447V17.2H382.647V20H381.247V13H382.647V15.8H385.447V13H386.847V20Z" fill="#050505"/>
<g filter="url(#filter0_d_10_21)">
<path d="M419 4.24999C419 1.90279 420.903 0 423.25 0H448.75C451.097 0 453 1.90279 453 4.24999V29.75C453 32.0972 451.097 34 448.75 34H423.25C420.903 34 419 32.0972 419 29.75V4.24999Z" fill="#7D53FA"/>
<path d="M423.25 0.849609H448.75C450.628 0.849628 452.15 2.37225 452.15 4.25V29.75C452.15 31.6277 450.628 33.1504 448.75 33.1504H423.25C421.372 33.1504 419.85 31.6278 419.85 29.75V4.25C419.85 2.37223 421.372 0.849609 423.25 0.849609Z" stroke="#050505" stroke-width="1.7"/>
<path d="M429.625 17H442.375M429.625 21.25H442.375M429.625 12.75H442.375" stroke="#EEEEEE" stroke-width="1.7" stroke-linecap="round" stroke-linejoin="round"/>
</g>
<defs>
<filter id="filter0_d_10_21" x="419" y="0" width="37.4" height="37.4" filterUnits="userSpaceOnUse" color-interpolation-filters="sRGB">
<feFlood flood-opacity="0" result="BackgroundImageFix"/>
<feColorMatrix in="SourceAlpha" type="matrix" values="0 0 0 0 0 0 0 0 0 0 0 0 0 0 0 0 0 0 127 0" result="hardAlpha"/>
<feOffset dx="3.4" dy="3.4"/>
<feComposite in2="hardAlpha" operator="out"/>
<feColorMatrix type="matrix" values="0 0 0 0 0 0 0 0 0 0 0 0 0 0 0 0 0 0 1 0"/>
<feBlend mode="normal" in2="BackgroundImageFix" result="effect1_dropShadow_10_21"/>
<feBlend mode="normal" in="SourceGraphic" in2="effect1_dropShadow_10_21" result="shape"/>
</filter>
</defs>
</svg>
