<?xml version="1.0" encoding="UTF-8"?>
<svg id="Layer_2" data-name="Layer 2" xmlns="http://www.w3.org/2000/svg" viewBox="0 0 154.17 205.56">
  <g id="Layer_1-2" data-name="Layer 1">
    <path d="M0,0h51.39v51.39H0V0ZM51.39,51.39h51.39V0h-51.39v51.39ZM102.78,51.39h51.39V0h-51.39v51.39ZM0,102.78h51.39v-51.39H0v51.39ZM102.78,102.78h51.39v-51.39h-51.39v51.39ZM51.39,128.47h51.39v-51.39h-51.39v51.39ZM0,154.17h51.39v-51.39H0v51.39ZM102.78,154.17h51.39v-51.39h-51.39v51.39ZM0,205.56h51.39v-51.39H0v51.39ZM51.39,205.56h51.39v-51.39h-51.39v51.39ZM102.78,205.56h51.39v-51.39h-51.39v51.39Z"/>
  </g>
</svg>