<?xml version="1.0" encoding="UTF-8"?>
<svg id="Layer_2" data-name="Layer 2" xmlns="http://www.w3.org/2000/svg" viewBox="0 0 154.17 205.56">
  <g id="Layer_1-2" data-name="Layer 1">
    <path d="M154.17,205.56h-51.39v-51.39h51.39v51.39ZM154.17,102.78h-51.39s0,51.39,0,51.39h51.39s0-51.39,0-51.39ZM102.78,102.78h-51.39s0,51.39,0,51.39h51.39s0-51.39,0-51.39ZM51.39,102.78H0s0,51.39,0,51.39h51.39s0-51.39,0-51.39ZM154.17,51.39h-51.39s0,51.39,0,51.39h51.39s0-51.39,0-51.39ZM51.39,51.39H0s0,51.39,0,51.39h51.39s0-51.39,0-51.39ZM154.17,0h-51.39s0,51.39,0,51.39h51.39s0-51.39,0-51.39ZM102.78,0h-51.39s0,51.39,0,51.39h51.39s0-51.39,0-51.39ZM51.39,0H0s0,51.39,0,51.39h51.39s0-51.39,0-51.39Z"/>
  </g>
</svg>