<svg width="266" height="361" viewBox="0 0 266 361" fill="none" xmlns="http://www.w3.org/2000/svg">
<path d="M168.528 55H150.528V37H154.128V51.4H157.728V37H161.328V51.4H164.928V37H168.528V55ZM181.142 55H177.542V40.6H173.942V37H181.142V55ZM200.928 55H186.528V51.4H197.328V40.6H190.128V44.2H193.728V47.8H186.528V37H200.928V55ZM213.521 47.8H209.921V40.6H206.321V37H213.521V47.8ZM233.307 55H229.707V40.6H222.507V55H218.907V37H233.307V55Z" fill="black"/>
<g clip-path="url(#clip0_11_190)">
<path d="M37 138H231C233.209 138 235 139.791 235 142V326C235 328.209 233.209 330 231 330H37C34.7909 330 33 328.209 33 326V142C33 139.791 34.7909 138 37 138Z" fill="#7D53FA"/>
<path d="M37 138H231C233.209 138 235 139.791 235 142V326C235 328.209 233.209 330 231 330H37C34.7909 330 33 328.209 33 326V142C33 139.791 34.7909 138 37 138Z" stroke="#111111" stroke-width="2"/>
<mask id="path-5-inside-1_11_190" fill="white">
<path d="M32 137H236V183H32V137Z"/>
</mask>
<path d="M236 183V181H32V183V185H236V183Z" fill="#111111" mask="url(#path-5-inside-1_11_190)"/>
<path d="M56 166L53.1333 163.133M54.6667 159.333C54.6667 162.279 52.2789 164.667 49.3333 164.667C46.3878 164.667 44 162.279 44 159.333C44 156.388 46.3878 154 49.3333 154C52.2789 154 54.6667 156.388 54.6667 159.333Z" stroke="#EEEEEE" stroke-width="2" stroke-linecap="round" stroke-linejoin="round"/>
<path opacity="0.5" d="M199.55 163H192.55V156H193.95V161.6H195.35V156H196.75V161.6H198.15V156H199.55V163ZM204.455 163H203.055V157.4H201.655V156H204.455V163ZM212.15 163H206.55V161.6H210.75V157.4H207.95V158.8H209.35V160.2H206.55V156H212.15V163ZM217.047 160.2H215.647V157.4H214.247V156H217.047V160.2ZM224.742 163H223.342V157.4H220.542V163H219.142V156H224.742V163Z" fill="#EEEEEE"/>
<path d="M203.55 201.4H202.15V207H200.75V201.4H196.55V200H203.55V201.4ZM211.255 207H209.855V201.4H207.055V207H205.655V200H211.255V207ZM218.953 207H217.553V204.2H214.753V207H213.353V200H214.753V202.8H217.553V200H218.953V207Z" fill="#EEEEEE"/>
<path d="M190.953 233H185.353V226H190.953V233ZM189.553 231.6V227.4H186.753V231.6H189.553ZM195.85 230.2H194.45V227.4H193.05V226H195.85V230.2ZM200.745 230.2H199.345V227.4H197.945V226H200.745V230.2ZM209.839 233H208.439V227.4H205.639V233H202.839V231.6H204.239V226H209.839V233ZM218.945 233H211.945V226H213.345V231.6H214.745V226H216.145V231.6H217.545V226H218.945V233Z" fill="#EEEEEE"/>
<path d="M197.247 259H190.247V252H191.647V257.6H193.047V252H194.447V257.6H195.847V252H197.247V259ZM202.153 259H200.753V253.4H199.353V252H202.153V259ZM209.847 259H204.247V257.6H208.447V253.4H204.247V249.2H205.647V252H209.847V259ZM218.945 259H211.945V252H213.345V257.6H214.745V252H216.145V257.6H217.545V252H218.945V259Z" fill="#EEEEEE"/>
<path d="M45 270H223C225.209 270 227 271.791 227 274V292C227 294.209 225.209 296 223 296H45C42.7909 296 41 294.209 41 292V274C41 271.791 42.7909 270 45 270Z" stroke="#111111" stroke-width="2"/>
<path d="M61.3334 279L54.0001 286.333L50.6667 283" stroke="#EEEEEE" stroke-width="1.33333" stroke-linecap="round" stroke-linejoin="round"/>
<path d="M194.453 286H188.853V284.6H190.253V279H191.653V284.6H193.053V279H194.453V286ZM203.55 286H196.55V284.6H200.75V280.4H196.55V279H202.15V284.6H203.55V286ZM211.255 286H209.855V280.4H205.655V279H211.255V286ZM218.953 286H217.553V283.2H214.753V286H213.353V279H214.753V281.8H217.553V279H218.953V286Z" fill="#EEEEEE"/>
<path d="M203.55 313H196.55V306H197.95V311.6H199.35V306H200.75V311.6H202.15V306H203.55V313ZM211.255 313H208.455V311.6H209.855V307.4H207.055V313H205.655V306H211.255V313ZM218.953 313H217.553V307.4H214.753V313H213.353V306H218.953V313Z" fill="#EEEEEE"/>
</g>
<path d="M37 92H231C233.209 92 235 93.7909 235 96V126C235 128.209 233.209 130 231 130H37C34.7909 130 33 128.209 33 126V96C33 93.7909 34.7909 92 37 92Z" fill="#7D53FA"/>
<path d="M37 92H231C233.209 92 235 93.7909 235 96V126C235 128.209 233.209 130 231 130H37C34.7909 130 33 128.209 33 126V96C33 93.7909 34.7909 92 37 92Z" stroke="#111111" stroke-width="2"/>
<path d="M52.6667 113L56.0001 116.333L59.3334 113M52.6667 109L56.0001 105.667L59.3334 109" stroke="#EEEEEE" stroke-width="2" stroke-linecap="round" stroke-linejoin="round"/>
<path d="M148.972 114H147.572V108.4H144.772V114H141.972V112.6H143.372V107H148.972V114ZM153.877 114H152.477V108.4H151.077V107H153.877V114ZM158.772 111.2H157.372V108.4H155.972V107H158.772V111.2ZM166.466 114H165.066V108.4H160.866V107H166.466V114ZM171.364 114H169.964V108.4H168.564V107H171.364V114ZM177.658 114H176.258V111.2H174.858V114H173.458V109.8H176.258V108.4H173.458V107H177.658V114ZM185.361 114H179.761V107H181.161V112.6H183.961V108.4H182.561V107H185.361V114ZM193.058 114H190.258V112.6H191.658V108.4H187.458V107H193.058V114ZM188.858 116.8H187.458V109.8H188.858V116.8ZM200.755 114H199.355V108.4H195.155V107H200.755V114ZM196.555 114H195.155V109.8H196.555V114ZM211.255 114H205.655V112.6H209.855V108.4H205.655V104.2H207.055V107H211.255V114ZM218.953 114H213.353V112.6H217.553V108.4H213.353V107H218.953V114Z" fill="#EEEEEE"/>
<defs>
<clipPath id="clip0_11_190">
<path d="M32 142C32 139.239 34.2386 137 37 137H231C233.761 137 236 139.239 236 142V326C236 328.761 233.761 331 231 331H37C34.2386 331 32 328.761 32 326V142Z" fill="white"/>
</clipPath>
</defs>
</svg>
