<svg width="66" height="134" viewBox="0 0 66 134" fill="none" xmlns="http://www.w3.org/2000/svg">
<rect x="0.5" y="0.5" width="65" height="133" rx="4.5" stroke="#8A38F5" stroke-dasharray="10 5"/>
<g clip-path="url(#clip0_11_247)">
<rect x="18.875" y="16.875" width="27.125" height="27.125" rx="4.375" fill="#D9D9D9"/>
<path d="M35.0474 26.9521L28.9521 33.0474" stroke="#050505" stroke-width="1.52381"/>
<path d="M30.4761 26.1905L34.6666 22L39.9999 27.3333L35.8094 31.5238" stroke="#050505" stroke-width="1.52381"/>
<path d="M33.5238 33.8094L29.3333 37.9999L24 32.6666L28.1905 28.4761" stroke="#050505" stroke-width="1.52381"/>
</g>
<rect x="18.4375" y="51.4375" width="26.25" height="26.25" rx="3.9375" fill="#050505"/>
<rect x="18.4375" y="51.4375" width="26.25" height="26.25" rx="3.9375" stroke="#FD982E" stroke-width="0.875" stroke-miterlimit="16"/>
<path d="M34.0474 61.5146L27.9521 67.6099" stroke="#FD982E" stroke-width="1.52381"/>
<path d="M29.4761 60.753L33.6666 56.5625L38.9999 61.8958L34.8094 66.0863" stroke="#FD982E" stroke-width="1.52381"/>
<path d="M32.5238 68.3719L28.3333 72.5624L23 67.2291L27.1905 63.0386" stroke="#FD982E" stroke-width="1.52381"/>
<rect x="19.5" y="87.5" width="26.125" height="26.125" rx="3.875" fill="#050505"/>
<rect x="19.5" y="87.5" width="26.125" height="26.125" rx="3.875" stroke="#FD982E"/>
<path d="M25.2929 105.355C24.9024 105.746 24.9024 106.379 25.2929 106.77C25.6834 107.16 26.3166 107.16 26.7071 106.77L26 106.062L25.2929 105.355ZM38 95.0625C38 94.5102 37.5523 94.0625 37 94.0625L28 94.0625C27.4477 94.0625 27 94.5102 27 95.0625C27 95.6148 27.4477 96.0625 28 96.0625L36 96.0625L36 104.062C36 104.615 36.4477 105.062 37 105.062C37.5523 105.062 38 104.615 38 104.062L38 95.0625ZM26 106.062L26.7071 106.77L37.7071 95.7696L37 95.0625L36.2929 94.3554L25.2929 105.355L26 106.062Z" fill="#FD982E"/>
<defs>
<clipPath id="clip0_11_247">
<rect x="18" y="16" width="28" height="28" rx="4.375" fill="white"/>
</clipPath>
</defs>
</svg>
