<svg width="186" height="361" viewBox="0 0 186 361" fill="none" xmlns="http://www.w3.org/2000/svg">
<rect x="0.229061" y="0.229061" width="184.623" height="360.542" rx="2.06155" stroke="#8A38F5" stroke-width="0.458122" stroke-dasharray="4.58 2.29"/>
<rect x="9.16235" y="9.16235" width="166.756" height="166.756" rx="83.3782" fill="#FAFAF9"/>
<path d="M46.7285 46.7285H67.9166V67.9166H46.7285V46.7285ZM117.357 67.9166H138.545V46.7285H117.357V67.9166ZM46.7285 91.4595H67.9166V70.2714H46.7285V91.4595ZM70.2714 91.4595H91.4595V70.2714H70.2714V91.4595ZM117.357 91.4595H138.545V70.2714H117.357V91.4595ZM46.7285 115.002H67.9166V93.8143H46.7285V115.002ZM93.8143 115.002H115.002V93.8143H93.8143V115.002ZM46.7285 138.545H67.9166V117.357H46.7285V138.545ZM117.357 138.545H138.545V117.357H117.357V138.545Z" fill="#7D53FA"/>
<rect x="9.16235" y="185.081" width="166.756" height="166.756" rx="83.3782" fill="#FAFAF9"/>
<g filter="url(#filter0_d_10_9)">
<path d="M46.7285 222.647H67.9166V243.835H46.7285V222.647ZM117.357 243.835H138.545V222.647H117.357V243.835ZM46.7285 267.378H67.9166V246.19H46.7285V267.378ZM70.2714 267.378H91.4595V246.19H70.2714V267.378ZM117.357 267.378H138.545V246.19H117.357V267.378ZM46.7285 290.921H67.9166V269.733H46.7285V290.921ZM93.8143 290.921H115.002V269.733H93.8143V290.921ZM46.7285 314.464H67.9166V293.276H46.7285V314.464ZM117.357 314.464H138.545V293.276H117.357V314.464Z" fill="#7D53FA"/>
</g>
<defs>
<filter id="filter0_d_10_9" x="46.7285" y="222.647" width="94.5656" height="94.5654" filterUnits="userSpaceOnUse" color-interpolation-filters="sRGB">
<feFlood flood-opacity="0" result="BackgroundImageFix"/>
<feColorMatrix in="SourceAlpha" type="matrix" values="0 0 0 0 0 0 0 0 0 0 0 0 0 0 0 0 0 0 127 0" result="hardAlpha"/>
<feOffset dx="2.74873" dy="2.74873"/>
<feComposite in2="hardAlpha" operator="out"/>
<feColorMatrix type="matrix" values="0 0 0 0 0.968627 0 0 0 0 0.584314 0 0 0 0 0.192157 0 0 0 1 0"/>
<feBlend mode="normal" in2="BackgroundImageFix" result="effect1_dropShadow_10_9"/>
<feBlend mode="normal" in="SourceGraphic" in2="effect1_dropShadow_10_9" result="shape"/>
</filter>
</defs>
</svg>
