<svg width="186" height="186" viewBox="0 0 186 186" fill="none" xmlns="http://www.w3.org/2000/svg">
<g filter="url(#filter0_d)">
<rect x="0" y="0" width="181.538" height="181.538" rx="90.769" fill="#7D53FA" shape-rendering="crispEdges"/>
<g filter="url(#filter1_d)">
<path d="M40.8962 40.8962H63.9625V63.9625H40.8962V40.8962ZM117.786 63.9625H140.852V40.8962H117.786V63.9625ZM40.8962 89.5923H63.9625V66.526H40.8962V89.5923ZM66.526 89.5923H89.5923V66.526H66.526V89.5923ZM117.786 89.5923H140.852V66.526H117.786V89.5923ZM40.8962 115.222H63.9625V92.1558H40.8962V115.222ZM92.1558 115.222H115.222V92.1558H92.1558V115.222ZM40.8962 140.852H63.9625V117.786H40.8962V140.852ZM117.786 140.852H140.852V117.786H117.786V140.852Z" fill="#FAFAF9"/>
</g>
</g>
<defs>
<filter id="filter0_d" x="0" y="0" width="185.528" height="185.528" filterUnits="userSpaceOnUse" color-interpolation-filters="sRGB">
<feFlood flood-opacity="0" result="BackgroundImageFix"/>
<feColorMatrix in="SourceAlpha" type="matrix" values="0 0 0 0 0 0 0 0 0 0 0 0 0 0 0 0 0 0 127 0" result="hardAlpha"/>
<feOffset dy="1.99492"/>
<feGaussianBlur stdDeviation="0.997462"/>
<feComposite in2="hardAlpha" operator="out"/>
<feColorMatrix type="matrix" values="0 0 0 0 0 0 0 0 0 0 0 0 0 0 0 0 0 0 0.25 0"/>
<feBlend mode="normal" in2="BackgroundImageFix" result="effect1_dropShadow"/>
<feBlend mode="normal" in="SourceGraphic" in2="effect1_dropShadow" result="shape"/>
</filter>
<filter id="filter1_d" x="40.8962" y="40.8962" width="101.95" height="101.95" filterUnits="userSpaceOnUse" color-interpolation-filters="sRGB">
<feFlood flood-opacity="0" result="BackgroundImageFix"/>
<feColorMatrix in="SourceAlpha" type="matrix" values="0 0 0 0 0 0 0 0 0 0 0 0 0 0 0 0 0 0 127 0" result="hardAlpha"/>
<feOffset dx="1.99492" dy="1.99492"/>
<feComposite in2="hardAlpha" operator="out"/>
<feColorMatrix type="matrix" values="0 0 0 0 0 0 0 0 0 0 0 0 0 0 0 0 0 0 1 0"/>
<feBlend mode="normal" in2="BackgroundImageFix" result="effect1_dropShadow"/>
<feBlend mode="normal" in="SourceGraphic" in2="effect1_dropShadow" result="shape"/>
</filter>
</defs>
</svg>
