<svg width="179" height="47" viewBox="0 0 179 47" fill="none" xmlns="http://www.w3.org/2000/svg">
<path d="M123.172 6.91602H129.57V13.3134H123.172V6.91602ZM130.281 13.3134H136.678V6.91602H130.281V13.3134ZM130.281 20.4217H136.678V14.0243H130.281V20.4217Z" fill="#7D53FA"/>
<path d="M73.4916 6.91602H79.8889V13.3134H73.4916V6.91602ZM80.5999 13.3134H86.9972V6.91602H80.5999V13.3134ZM87.7082 13.3134H94.1056V6.91602H87.7082V13.3134ZM94.8165 13.3134H101.214V6.91602H94.8165V13.3134ZM87.7082 20.4217H94.1056V14.0243H87.7082V20.4217ZM87.7082 27.53H94.1056V21.1327H87.7082V27.53ZM87.7082 34.6383H94.1056V28.241H87.7082V34.6383Z" fill="#7D53FA"/>
<path d="M9.68262 6.91602H16.08V13.3134H9.68262V6.91602ZM16.7909 13.3134H23.1883V6.91602H16.7909V13.3134ZM23.8993 13.3134H30.2966V6.91602H23.8993V13.3134ZM31.0076 13.3134H37.4049V6.91602H31.0076V13.3134ZM9.68262 20.4217H16.08V14.0243H9.68262V20.4217ZM31.0076 20.4217H37.4049V14.0243H31.0076V20.4217ZM9.68262 27.53H16.08V21.1327H9.68262V27.53ZM31.0076 27.53H37.4049V21.1327H31.0076V27.53ZM16.7909 34.6383H23.1883V28.241H16.7909V34.6383ZM23.8993 34.6383H30.2966V28.241H23.8993V34.6383Z" fill="#7D53FA"/>
<path d="M105.478 6.91602H111.876V13.3134H105.478V6.91602ZM112.587 13.3134H118.984V6.91602H112.587V13.3134ZM112.587 20.4217H118.984V14.0243H112.587V20.4217ZM112.587 27.53H118.984V21.1327H112.587V27.53ZM98.37 34.6383H104.767V28.241H98.37V34.6383ZM105.478 34.6383H111.876V28.241H105.478V34.6383ZM112.587 34.6383H118.984V28.241H112.587V34.6383Z" fill="#7D53FA"/>
<path d="M140.865 6.91602H147.262V13.3134H140.865V6.91602ZM162.19 13.3134H168.587V6.91602H162.19V13.3134ZM140.865 20.4217H147.262V14.0243H140.865V20.4217ZM147.973 20.4217H154.371V14.0243H147.973V20.4217ZM162.19 20.4217H168.587V14.0243H162.19V20.4217ZM140.865 27.53H147.262V21.1327H140.865V27.53ZM155.082 27.53H161.479V21.1327H155.082V27.53ZM140.865 34.6383H147.262V28.241H140.865V34.6383ZM162.19 34.6383H168.587V28.241H162.19V34.6383Z" fill="#7D53FA"/>
<path d="M41.556 6.91602H47.9533V13.3134H41.556V6.91602ZM48.6643 13.3134H55.0616V6.91602H48.6643V13.3134ZM55.7726 13.3134H62.17V6.91602H55.7726V13.3134ZM62.8809 13.3134H69.2783V6.91602H62.8809V13.3134ZM62.8809 20.4217H69.2783V14.0243H62.8809V20.4217ZM41.556 27.53H47.9533V21.1327H41.556V27.53ZM55.7726 27.53H62.17V21.1327H55.7726V27.53ZM62.8809 27.53H69.2783V21.1327H62.8809V27.53ZM41.556 34.6383H47.9533V28.241H41.556V34.6383ZM48.6643 41.7467H55.0616V35.3493H48.6643V41.7467ZM41.556 41.7467H47.9533V35.3493H41.556V41.7467Z" fill="#7D53FA"/>
</svg>
