<svg width="186" height="186" viewBox="0 0 186 186" fill="none" xmlns="http://www.w3.org/2000/svg">
<rect x="0" y="0" width="181.538" height="181.538" rx="90.769" fill="#7D53FA" shape-rendering="crispEdges"/>
<path d="M40.8962 40.8962H63.9625V63.9625H40.8962V40.8962ZM117.786 63.9625H140.852V40.8962H117.786V63.9625ZM40.8962 89.5923H63.9625V66.526H40.8962V89.5923ZM66.526 89.5923H89.5923V66.526H66.526V89.5923ZM117.786 89.5923H140.852V66.526H117.786V89.5923ZM40.8962 115.222H63.9625V92.1558H40.8962V115.222ZM92.1558 115.222H115.222V92.1558H92.1558V115.222ZM40.8962 140.852H63.9625V117.786H40.8962V140.852ZM117.786 140.852H140.852V117.786H117.786V140.852Z" fill="#FAFAF9"/>
</svg>
