<svg width="202" height="393" viewBox="0 0 202 393" fill="none" xmlns="http://www.w3.org/2000/svg">
<rect x="0.249365" y="0.249365" width="200.989" height="392.501" rx="2.24429" stroke="#8A38F5" stroke-width="0.498731" stroke-dasharray="4.99 2.49"/>
<rect x="9.97461" y="9.97461" width="181.538" height="181.538" rx="90.769" fill="#7D53FA"/>
<path d="M50.8706 50.8706H73.9369V73.9369H50.8706V50.8706ZM127.76 73.9369H150.826V50.8706H127.76V73.9369ZM50.8706 99.5667H73.9369V76.5004H50.8706V99.5667ZM76.5004 99.5667H99.5667V76.5004H76.5004V99.5667ZM127.76 99.5667H150.826V76.5004H127.76V99.5667ZM50.8706 125.196H73.9369V102.13H50.8706V125.196ZM102.13 125.196H125.196V102.13H102.13V125.196ZM50.8706 150.826H73.9369V127.76H50.8706V150.826ZM127.76 150.826H150.826V127.76H127.76V150.826Z" fill="#FAFAF9"/>
<g filter="url(#filter0_d_10_12)">
<rect x="9.97461" y="201.487" width="181.538" height="181.538" rx="90.769" fill="#7D53FA" shape-rendering="crispEdges"/>
<g filter="url(#filter1_d_10_12)">
<path d="M50.8706 242.383H73.9369V265.45H50.8706V242.383ZM127.76 265.45H150.826V242.383H127.76V265.45ZM50.8706 291.079H73.9369V268.013H50.8706V291.079ZM76.5004 291.079H99.5667V268.013H76.5004V291.079ZM127.76 291.079H150.826V268.013H127.76V291.079ZM50.8706 316.709H73.9369V293.643H50.8706V316.709ZM102.13 316.709H125.196V293.643H102.13V316.709ZM50.8706 342.339H73.9369V319.273H50.8706V342.339ZM127.76 342.339H150.826V319.273H127.76V342.339Z" fill="#FAFAF9"/>
</g>
</g>
<defs>
<filter id="filter0_d_10_12" x="7.97969" y="201.487" width="185.528" height="185.528" filterUnits="userSpaceOnUse" color-interpolation-filters="sRGB">
<feFlood flood-opacity="0" result="BackgroundImageFix"/>
<feColorMatrix in="SourceAlpha" type="matrix" values="0 0 0 0 0 0 0 0 0 0 0 0 0 0 0 0 0 0 127 0" result="hardAlpha"/>
<feOffset dy="1.99492"/>
<feGaussianBlur stdDeviation="0.997462"/>
<feComposite in2="hardAlpha" operator="out"/>
<feColorMatrix type="matrix" values="0 0 0 0 0 0 0 0 0 0 0 0 0 0 0 0 0 0 0.25 0"/>
<feBlend mode="normal" in2="BackgroundImageFix" result="effect1_dropShadow_10_12"/>
<feBlend mode="normal" in="SourceGraphic" in2="effect1_dropShadow_10_12" result="shape"/>
</filter>
<filter id="filter1_d_10_12" x="50.8706" y="242.383" width="101.95" height="101.95" filterUnits="userSpaceOnUse" color-interpolation-filters="sRGB">
<feFlood flood-opacity="0" result="BackgroundImageFix"/>
<feColorMatrix in="SourceAlpha" type="matrix" values="0 0 0 0 0 0 0 0 0 0 0 0 0 0 0 0 0 0 127 0" result="hardAlpha"/>
<feOffset dx="1.99492" dy="1.99492"/>
<feComposite in2="hardAlpha" operator="out"/>
<feColorMatrix type="matrix" values="0 0 0 0 0 0 0 0 0 0 0 0 0 0 0 0 0 0 1 0"/>
<feBlend mode="normal" in2="BackgroundImageFix" result="effect1_dropShadow_10_12"/>
<feBlend mode="normal" in="SourceGraphic" in2="effect1_dropShadow_10_12" result="shape"/>
</filter>
</defs>
</svg>
