<svg width="52" height="148" viewBox="0 0 52 148" fill="none" xmlns="http://www.w3.org/2000/svg">
<rect x="0.5" y="0.5" width="51" height="147" rx="4.5" stroke="#8A38F5" stroke-dasharray="10 5"/>
<path d="M32 32L29.1333 29.1333M30.6667 25.3333C30.6667 28.2789 28.2789 30.6667 25.3333 30.6667C22.3878 30.6667 20 28.2789 20 25.3333C20 22.3878 22.3878 20 25.3333 20C28.2789 20 30.6667 22.3878 30.6667 25.3333Z" stroke="#EEEEEE" stroke-width="2" stroke-linecap="round" stroke-linejoin="round"/>
<path d="M32 64L29.1333 61.1333M30.6667 57.3333C30.6667 60.2789 28.2789 62.6667 25.3333 62.6667C22.3878 62.6667 20 60.2789 20 57.3333C20 54.3878 22.3878 52 25.3333 52C28.2789 52 30.6667 54.3878 30.6667 57.3333Z" stroke="#7D53FA" stroke-width="2" stroke-linecap="round" stroke-linejoin="round"/>
<path d="M32 96L29.1333 93.1333M30.6667 89.3333C30.6667 92.2789 28.2789 94.6667 25.3333 94.6667C22.3878 94.6667 20 92.2789 20 89.3333C20 86.3878 22.3878 84 25.3333 84C28.2789 84 30.6667 86.3878 30.6667 89.3333Z" stroke="#767675" stroke-width="2" stroke-linecap="round" stroke-linejoin="round"/>
<path d="M32 128L29.1333 125.133M30.6667 121.333C30.6667 124.279 28.2789 126.667 25.3333 126.667C22.3878 126.667 20 124.279 20 121.333C20 118.388 22.3878 116 25.3333 116C28.2789 116 30.6667 118.388 30.6667 121.333Z" stroke="#36EF79" stroke-width="2" stroke-linecap="round" stroke-linejoin="round"/>
</svg>
