<?xml version="1.0" encoding="UTF-8"?>
<svg id="Layer_2" data-name="Layer 2" xmlns="http://www.w3.org/2000/svg" viewBox="0 0 1292.7 224.43">
  <defs>
    <style>
      .cls-1 {
        fill: #fff;
      }

      .cls-2 {
        fill: #1c1b1a;
      }
    </style>
  </defs>
  <g id="Layer_1-2" data-name="Layer 1">
    <g>
      <g>
        <path class="cls-2" d="M388.05,89.41h-11.39v-36.61h-17.23v21.98c0,9.15-5.74,14.62-14.98,14.62h-6.01l1.79-9.24h4.58c1.7,0,3.23-1.97,3.23-5.38v-16.42l1.44-5.56h-6.1l1.79-9.24h40.02c1.53,0,2.87,1.17,2.87,2.6v43.25ZM415.48,67.88l-11.39,1.79v-16.87h-7.27l1.88-9.24h13.91c1.61,0,2.87,1.08,2.87,2.51v21.8ZM470.83,89.41h-11.39v-36.61h-17.23v21.98c0,9.15-5.74,14.62-14.98,14.62h-6.01l1.79-9.24h4.58c1.7,0,3.23-1.97,3.23-5.38v-16.42l1.44-5.56h-6.1l1.79-9.24h40.02c1.53,0,2.87,1.17,2.87,2.6v43.25ZM497.78,89.41h-11.39v-36.61h-7.18l1.79-9.24h13.91c1.61,0,2.87,1.17,2.87,2.6v43.25ZM532.94,43.56l-1.79,9.24h-8.25l5.47,36.61h-11.84l-4.22-30.95,1.53-5.65h-7.81l1.79-9.24h25.12ZM584.98,89.41h-11.3v-36.61h-19.11v36.61h-11.3v-31.04l1.35-5.56h-5.47l1.79-9.24h41.27c1.53,0,2.78,1.17,2.78,2.6v43.25ZM659.76,89.41h-11.39v-36.61h-17.23v21.98c0,9.15-5.74,14.62-14.98,14.62h-6.01l1.79-9.24h4.58c1.7,0,3.23-1.97,3.23-5.38v-16.42l1.44-5.56h-6.1l1.79-9.24h40.02c1.53,0,2.87,1.17,2.87,2.6v43.25ZM705.73,89.41h-11.39v-36.61h-26.2l1.79-9.24h32.93c1.61,0,2.87,1.17,2.87,2.6v43.25ZM732.67,89.41h-11.39v-36.61h-7.18l1.79-9.24h13.91c1.61,0,2.87,1.17,2.87,2.6v43.25ZM799.98,71.38c0,11.75-13.19,18.75-26.83,18.75s-25.3-4.76-26.47-5.2v-32.12h-5.38l1.79-9.24h12.11c1.53,0,2.78,1.17,2.78,2.6v32.21c1.44.36,8.25,2.06,15.16,2.06,10.5,0,15.43-4.67,15.43-8.97v-18.66h-5.83l1.79-9.24h12.56c1.61,0,2.87,1.17,2.87,2.6v25.21ZM778.44,64.47l-2.6,9.96h-8.61v-21.62h-4.76l1.79-9.24h11.3c1.61,0,2.87,1.17,2.87,2.6v18.3ZM840.38,89.41h-12.2l15.88-36.52h-18.93v48.81l-11.39,1.88v-45.04l1.44-5.65h-5.47l1.79-9.33h43.87c4.58,0,2.15,6.64,1.88,8.25l-16.87,37.59ZM911.6,89.41h-11.39v-36.61h-17.23v21.98c0,9.15-5.74,14.62-14.98,14.62h-6.01l1.79-9.24h4.58c1.7,0,3.23-1.97,3.23-5.38v-16.42l1.44-5.56h-6.1l1.79-9.24h40.02c1.53,0,2.87,1.17,2.87,2.6v43.25ZM960.26,51.64l-19.29,37.77h-12.2l18.3-36.61h-23.78c-2.24,0-3.32-1.61-3.32-3.23v-15.52l11.39-1.88v11.39h26.02c1.61,0,2.87,1.26,2.87,2.78v5.29ZM1028.22,89.41h-11.39v-31.13c0-3.59-1.17-5.47-5.02-5.47h-25.48l1.79-9.24h25.57c9.69,0,14.53,5.65,14.53,14.71v31.13ZM998.52,89.41h-11.39v-23.69l11.39-1.79v25.48ZM1068.52,89.41h-12.2l15.88-36.52h-18.93v48.81l-11.39,1.88v-45.04l1.44-5.65h-5.47l1.79-9.33h43.87c4.58,0,2.15,6.64,1.88,8.25l-16.87,37.59ZM1133.49,51.64l-19.29,37.77h-12.2l18.3-36.61h-23.78c-2.24,0-3.32-1.61-3.32-3.23v-15.52l11.39-1.88v11.39h26.02c1.61,0,2.87,1.26,2.87,2.78v5.29ZM1186.25,89.41h-11.3v-36.61h-19.11v36.61h-11.3v-31.04l1.35-5.56h-5.47l1.79-9.24h41.27c1.53,0,2.78,1.17,2.78,2.6v43.25ZM1240.11,83.04l-2.51,6.37h-22.34l1.7-9.24h11.75v-19.83c0-3.77-2.51-7.54-7.18-7.54h-8.61l-4.13,36.61h-11.57l4.04-31.22,2.24-5.38h-7.9l1.79-9.24h24.14c11.48,0,18.57,7.36,18.57,16.78v22.7ZM1292.7,89.41h-11.39v-31.13c0-3.59-1.17-5.47-5.02-5.47h-25.48l1.79-9.24h25.57c9.69,0,14.53,5.65,14.53,14.71v31.13ZM1263,89.41h-11.39v-23.69l11.39-1.79v25.48Z"/>
        <g>
          <path class="cls-2" d="M352.17,120.7v27.56h33.76v-27.56h8.53v64.1h-8.53v-29.36h-33.76v29.36h-8.53v-64.1h8.53Z"/>
          <path class="cls-2" d="M408.73,130.03v-9.34h7.63v9.34h-7.63ZM416.36,138.38v46.41h-7.63v-46.41h7.63Z"/>
          <path class="cls-2" d="M424.26,127.88v-7.18h51.26v7.18h-21.36v56.91h-8.53v-56.91h-21.36Z"/>
        </g>
        <path class="cls-2" d="M505.58,184.88l-7,11.3-2.33-1.08,3.05-10.32c-1.44-.99-2.42-2.51-2.42-4.4,0-2.87,2.33-5.2,5.2-5.2s5.11,2.33,5.11,5.2c0,1.61-.9,3.32-1.61,4.49ZM556.05,178.42l-1.08,6.37h-39.21l1.17-6.37h23.96c.72,0,1.17-.63,1.17-1.35v-24.14c0-4.31-1.61-7.63-6.82-7.63h-18.84l1.08-6.37h19.65c8.43,0,12.65,5.02,12.65,14.09v17.94l-1.53,6.37c-.18.45.27,1.08.81,1.08h7ZM575.15,184.79h-7.81v-38.13c0-.99-.18-1.35-1.08-1.35h-5.74l1.17-6.37h12.38c.63,0,1.08.45,1.08,1.08v44.77ZM624.55,138.94l-1.17,6.37h-2.06l-7.54,14.18-4.31,3.95c-.72.63-.63,1.35,0,1.97l13.64,13.01-1.08,6.37h-35.8l1.08-6.37h23.87c1.08,0,1.17-.99.45-1.53l-9.78-8.25-17.5-27.45,6.28-4.13,13.46,22.52c.54.81,1.26.72,1.61,0l10.14-20.64h8.7ZM645.71,163.35l-7.81,1.35v-18.03c0-.99-.18-1.35-1.08-1.35h-5.74l1.17-6.37h12.38c.63,0,1.08.45,1.08,1.08v23.33ZM692.68,165.86c0,7.81-5.29,13.28-11.84,15.61l-23.69,8.07,1.26-7.45,11.04-3.68c.63-.27.81-.81.36-1.44l-3.86-6.01-6.82-24.85c-.09-.54-.54-.81-.99-.81h-3.32l1.17-6.37h7.72c.99,0,1.53.81,1.61,1.35l9.42,35.53c.18.45.45.81,1.08.63,4.58-1.53,9.15-3.95,9.15-10.59v-19.2c0-.99-.18-1.35-1.17-1.35h-4.58l1.08-6.37h11.39c.54,0,.99.45.99,1.08v25.84ZM738.64,145.32l-18.93,39.48h-8.25l17.94-38.04c.45-.81.09-1.44-.81-1.44h-25.12c-1.08,0-1.53-.63-1.53-1.61v-14.98l7.81-1.35v10.23c0,.99.18,1.35,1.17,1.35h27.63c.54,0,.99.45.99,1.08l-.9,5.29ZM805.34,184.79h-7.81v-31.85c0-4.31-1.53-7.63-6.82-7.63h-23.33l1.17-6.37h24.05c8.52,0,12.74,5.02,12.74,14.09v31.76ZM775.64,184.79h-7.81v-25.12l7.81-1.35v26.47ZM860.74,169.27c0,9.24-6.73,16.42-20.01,16.42-11.22,0-20.55-6.64-20.55-6.64v-32.84c0-.63-.36-.9-1.08-.9h-4.67l1.17-6.37h11.3c.54,0,1.08.45,1.08,1.08v35.08s5.92,3.86,12.65,3.86c8.61,0,12.29-4.22,12.29-9.6v-20.82l.36-3.77h-.54l-12.02,12.29-5.38-5.47,12.29-12.02c.45-.45.9-.63,1.53-.63h10.5c.54,0,1.08.45,1.08,1.08v29.25ZM906.71,145.32l-18.93,39.48h-8.25l17.94-38.04c.45-.81.09-1.44-.81-1.44h-25.12c-1.08,0-1.53-.63-1.53-1.61v-14.98l7.81-1.35v10.23c0,.99.18,1.35,1.17,1.35h27.63c.54,0,.99.45.99,1.08l-.9,5.29ZM929.33,184.79h-7.81v-38.13c0-.99-.18-1.35-1.08-1.35h-5.74l1.17-6.37h12.38c.63,0,1.08.45,1.08,1.08v44.77ZM985.09,145.32l-18.93,39.48h-8.34l17.94-38.04c.45-.81.18-1.44-.72-1.44h-21.71c-.9,0-1.35.45-1.35,1.35v50.69l-7.81,1.35v-45.4l1.61-6.73c.18-.81-.09-1.26-.9-1.26h-4.4l1.17-6.37h43.25c.54,0,1.08.45.99,1.08l-.81,5.29ZM1031.41,170.62c0,7.81-5.56,14.18-14,14.18h-23.42l1.17-6.37h18.84c7.09,0,9.69-3.32,9.69-9.33v-22.43c0-.99-.18-1.35-1.17-1.35h-16.6c-.72,0-1.26.45-1.35,1.17l-1.53,13.55c-.09.63,0,1.26.63,1.26h6.82l-1.17,6.37h-13.19c-.63,0-1.17-.27-1.08-.9l1.53-13.46,2.33-6.64c.27-.9,0-1.35-.9-1.35h-4.04l1.17-6.37h35.26c.54,0,.99.45.99,1.08v30.6ZM1081.98,184.79h-7.81v-31.85c0-4.31-1.53-7.63-6.82-7.63h-23.33l1.17-6.37h24.05c8.52,0,12.74,5.02,12.74,14.09v31.76ZM1052.28,184.79h-7.81v-25.12l7.81-1.35v26.47Z"/>
        <path class="cls-2" d="M112.21,0C50.27,0,0,50.27,0,112.21s50.27,112.21,112.21,112.21,112.21-50.27,112.21-112.21S174.16,0,112.21,0ZM112.21,170.12c-31.98,0-57.9-25.92-57.9-57.9s25.92-57.9,57.9-57.9,57.9,25.92,57.9,57.9-25.92,57.9-57.9,57.9Z"/>
      </g>
      <g>
        <path class="cls-1" d="M388.05,89.41h-11.39v-36.61h-17.23v21.98c0,9.15-5.74,14.62-14.98,14.62h-6.01l1.79-9.24h4.58c1.7,0,3.23-1.97,3.23-5.38v-16.42l1.44-5.56h-6.1l1.79-9.24h40.02c1.53,0,2.87,1.17,2.87,2.6v43.25ZM415.48,67.88l-11.39,1.79v-16.87h-7.27l1.88-9.24h13.91c1.61,0,2.87,1.08,2.87,2.51v21.8ZM470.83,89.41h-11.39v-36.61h-17.23v21.98c0,9.15-5.74,14.62-14.98,14.62h-6.01l1.79-9.24h4.58c1.7,0,3.23-1.97,3.23-5.38v-16.42l1.44-5.56h-6.1l1.79-9.24h40.02c1.53,0,2.87,1.17,2.87,2.6v43.25ZM497.78,89.41h-11.39v-36.61h-7.18l1.79-9.24h13.91c1.61,0,2.87,1.17,2.87,2.6v43.25ZM532.94,43.56l-1.79,9.24h-8.25l5.47,36.61h-11.84l-4.22-30.95,1.53-5.65h-7.81l1.79-9.24h25.12ZM584.98,89.41h-11.3v-36.61h-19.11v36.61h-11.3v-31.04l1.35-5.56h-5.47l1.79-9.24h41.27c1.53,0,2.78,1.17,2.78,2.6v43.25ZM659.76,89.41h-11.39v-36.61h-17.23v21.98c0,9.15-5.74,14.62-14.98,14.62h-6.01l1.79-9.24h4.58c1.7,0,3.23-1.97,3.23-5.38v-16.42l1.44-5.56h-6.1l1.79-9.24h40.02c1.53,0,2.87,1.17,2.87,2.6v43.25ZM705.73,89.41h-11.39v-36.61h-26.2l1.79-9.24h32.93c1.61,0,2.87,1.17,2.87,2.6v43.25ZM732.67,89.41h-11.39v-36.61h-7.18l1.79-9.24h13.91c1.61,0,2.87,1.17,2.87,2.6v43.25ZM799.98,71.38c0,11.75-13.19,18.75-26.83,18.75s-25.3-4.76-26.47-5.2v-32.12h-5.38l1.79-9.24h12.11c1.53,0,2.78,1.17,2.78,2.6v32.21c1.44.36,8.25,2.06,15.16,2.06,10.5,0,15.43-4.67,15.43-8.97v-18.66h-5.83l1.79-9.24h12.56c1.61,0,2.87,1.17,2.87,2.6v25.21ZM778.44,64.47l-2.6,9.96h-8.61v-21.62h-4.76l1.79-9.24h11.3c1.61,0,2.87,1.17,2.87,2.6v18.3ZM840.38,89.41h-12.2l15.88-36.52h-18.93v48.81l-11.39,1.88v-45.04l1.44-5.65h-5.47l1.79-9.33h43.87c4.58,0,2.15,6.64,1.88,8.25l-16.87,37.59ZM911.6,89.41h-11.39v-36.61h-17.23v21.98c0,9.15-5.74,14.62-14.98,14.62h-6.01l1.79-9.24h4.58c1.7,0,3.23-1.97,3.23-5.38v-16.42l1.44-5.56h-6.1l1.79-9.24h40.02c1.53,0,2.87,1.17,2.87,2.6v43.25ZM960.26,51.64l-19.29,37.77h-12.2l18.3-36.61h-23.78c-2.24,0-3.32-1.61-3.32-3.23v-15.52l11.39-1.88v11.39h26.02c1.61,0,2.87,1.26,2.87,2.78v5.29ZM1028.22,89.41h-11.39v-31.13c0-3.59-1.17-5.47-5.02-5.47h-25.48l1.79-9.24h25.57c9.69,0,14.53,5.65,14.53,14.71v31.13ZM998.52,89.41h-11.39v-23.69l11.39-1.79v25.48ZM1068.52,89.41h-12.2l15.88-36.52h-18.93v48.81l-11.39,1.88v-45.04l1.44-5.65h-5.47l1.79-9.33h43.87c4.58,0,2.15,6.64,1.88,8.25l-16.87,37.59ZM1133.49,51.64l-19.29,37.77h-12.2l18.3-36.61h-23.78c-2.24,0-3.32-1.61-3.32-3.23v-15.52l11.39-1.88v11.39h26.02c1.61,0,2.87,1.26,2.87,2.78v5.29ZM1186.25,89.41h-11.3v-36.61h-19.11v36.61h-11.3v-31.04l1.35-5.56h-5.47l1.79-9.24h41.27c1.53,0,2.78,1.17,2.78,2.6v43.25ZM1240.11,83.04l-2.51,6.37h-22.34l1.7-9.24h11.75v-19.83c0-3.77-2.51-7.54-7.18-7.54h-8.61l-4.13,36.61h-11.57l4.04-31.22,2.24-5.38h-7.9l1.79-9.24h24.14c11.48,0,18.57,7.36,18.57,16.78v22.7ZM1292.7,89.41h-11.39v-31.13c0-3.59-1.17-5.47-5.02-5.47h-25.48l1.79-9.24h25.57c9.69,0,14.53,5.65,14.53,14.71v31.13ZM1263,89.41h-11.39v-23.69l11.39-1.79v25.48Z"/>
        <g>
          <path class="cls-1" d="M352.17,120.7v27.56h33.76v-27.56h8.53v64.1h-8.53v-29.36h-33.76v29.36h-8.53v-64.1h8.53Z"/>
          <path class="cls-1" d="M408.73,130.03v-9.34h7.63v9.34h-7.63ZM416.36,138.38v46.41h-7.63v-46.41h7.63Z"/>
          <path class="cls-1" d="M424.26,127.88v-7.18h51.26v7.18h-21.36v56.91h-8.53v-56.91h-21.36Z"/>
        </g>
        <path class="cls-1" d="M505.58,184.88l-7,11.3-2.33-1.08,3.05-10.32c-1.44-.99-2.42-2.51-2.42-4.4,0-2.87,2.33-5.2,5.2-5.2s5.11,2.33,5.11,5.2c0,1.61-.9,3.32-1.61,4.49ZM556.05,178.42l-1.08,6.37h-39.21l1.17-6.37h23.96c.72,0,1.17-.63,1.17-1.35v-24.14c0-4.31-1.61-7.63-6.82-7.63h-18.84l1.08-6.37h19.65c8.43,0,12.65,5.02,12.65,14.09v17.94l-1.53,6.37c-.18.45.27,1.08.81,1.08h7ZM575.15,184.79h-7.81v-38.13c0-.99-.18-1.35-1.08-1.35h-5.74l1.17-6.37h12.38c.63,0,1.08.45,1.08,1.08v44.77ZM624.55,138.94l-1.17,6.37h-2.06l-7.54,14.18-4.31,3.95c-.72.63-.63,1.35,0,1.97l13.64,13.01-1.08,6.37h-35.8l1.08-6.37h23.87c1.08,0,1.17-.99.45-1.53l-9.78-8.25-17.5-27.45,6.28-4.13,13.46,22.52c.54.81,1.26.72,1.61,0l10.14-20.64h8.7ZM645.71,163.35l-7.81,1.35v-18.03c0-.99-.18-1.35-1.08-1.35h-5.74l1.17-6.37h12.38c.63,0,1.08.45,1.08,1.08v23.33ZM692.68,165.86c0,7.81-5.29,13.28-11.84,15.61l-23.69,8.07,1.26-7.45,11.04-3.68c.63-.27.81-.81.36-1.44l-3.86-6.01-6.82-24.85c-.09-.54-.54-.81-.99-.81h-3.32l1.17-6.37h7.72c.99,0,1.53.81,1.61,1.35l9.42,35.53c.18.45.45.81,1.08.63,4.58-1.53,9.15-3.95,9.15-10.59v-19.2c0-.99-.18-1.35-1.17-1.35h-4.58l1.08-6.37h11.39c.54,0,.99.45.99,1.08v25.84ZM738.64,145.32l-18.93,39.48h-8.25l17.94-38.04c.45-.81.09-1.44-.81-1.44h-25.12c-1.08,0-1.53-.63-1.53-1.61v-14.98l7.81-1.35v10.23c0,.99.18,1.35,1.17,1.35h27.63c.54,0,.99.45.99,1.08l-.9,5.29ZM805.34,184.79h-7.81v-31.85c0-4.31-1.53-7.63-6.82-7.63h-23.33l1.17-6.37h24.05c8.52,0,12.74,5.02,12.74,14.09v31.76ZM775.64,184.79h-7.81v-25.12l7.81-1.35v26.47ZM860.74,169.27c0,9.24-6.73,16.42-20.01,16.42-11.22,0-20.55-6.64-20.55-6.64v-32.84c0-.63-.36-.9-1.08-.9h-4.67l1.17-6.37h11.3c.54,0,1.08.45,1.08,1.08v35.08s5.92,3.86,12.65,3.86c8.61,0,12.29-4.22,12.29-9.6v-20.82l.36-3.77h-.54l-12.02,12.29-5.38-5.47,12.29-12.02c.45-.45.9-.63,1.53-.63h10.5c.54,0,1.08.45,1.08,1.08v29.25ZM906.71,145.32l-18.93,39.48h-8.25l17.94-38.04c.45-.81.09-1.44-.81-1.44h-25.12c-1.08,0-1.53-.63-1.53-1.61v-14.98l7.81-1.35v10.23c0,.99.18,1.35,1.17,1.35h27.63c.54,0,.99.45.99,1.08l-.9,5.29ZM929.33,184.79h-7.81v-38.13c0-.99-.18-1.35-1.08-1.35h-5.74l1.17-6.37h12.38c.63,0,1.08.45,1.08,1.08v44.77ZM985.09,145.32l-18.93,39.48h-8.34l17.94-38.04c.45-.81.18-1.44-.72-1.44h-21.71c-.9,0-1.35.45-1.35,1.35v50.69l-7.81,1.35v-45.4l1.61-6.73c.18-.81-.09-1.26-.9-1.26h-4.4l1.17-6.37h43.25c.54,0,1.08.45.99,1.08l-.81,5.29ZM1031.41,170.62c0,7.81-5.56,14.18-14,14.18h-23.42l1.17-6.37h18.84c7.09,0,9.69-3.32,9.69-9.33v-22.43c0-.99-.18-1.35-1.17-1.35h-16.6c-.72,0-1.26.45-1.35,1.17l-1.53,13.55c-.09.63,0,1.26.63,1.26h6.82l-1.17,6.37h-13.19c-.63,0-1.17-.27-1.08-.9l1.53-13.46,2.33-6.64c.27-.9,0-1.35-.9-1.35h-4.04l1.17-6.37h35.26c.54,0,.99.45.99,1.08v30.6ZM1081.98,184.79h-7.81v-31.85c0-4.31-1.53-7.63-6.82-7.63h-23.33l1.17-6.37h24.05c8.52,0,12.74,5.02,12.74,14.09v31.76ZM1052.28,184.79h-7.81v-25.12l7.81-1.35v26.47Z"/>
        <path class="cls-1" d="M112.21,0C50.27,0,0,50.27,0,112.21s50.27,112.21,112.21,112.21,112.21-50.27,112.21-112.21S174.16,0,112.21,0ZM112.21,170.12c-31.98,0-57.9-25.92-57.9-57.9s25.92-57.9,57.9-57.9,57.9,25.92,57.9,57.9-25.92,57.9-57.9,57.9Z"/>
      </g>
    </g>
  </g>
</svg>