<svg width="129" height="679" viewBox="0 0 129 679" fill="none" xmlns="http://www.w3.org/2000/svg">
<rect x="0.5" y="0.5" width="127.649" height="678" rx="4.5" stroke="#8A38F5" stroke-dasharray="10 5"/>
<g filter="url(#filter0_d_11_483)">
<rect x="20" y="20" width="82.2705" height="34" rx="5" fill="#EEEEEE" shape-rendering="crispEdges"/>
<rect x="20.5" y="20.5" width="81.2705" height="33" rx="4.5" stroke="#111111" shape-rendering="crispEdges"/>
<path d="M38.1041 40H32.5041V33H33.9041V38.6H36.7041V34.4H35.3041V33H38.1041V40ZM43.0014 37.2H41.6014V34.4H40.2014V33H43.0014V37.2ZM50.6959 40H49.2959V34.4H45.0959V33H50.6959V40ZM58.3932 40H52.7932V38.6H56.9932V34.4H54.1932V35.8H55.5932V37.2H52.7932V33H58.3932V40ZM67.4904 40H66.0904V34.4H63.2904V40H60.4904V38.6H61.8904V33H67.4904V40Z" fill="#050505"/>
<rect x="92.2705" y="36.7297" width="4.72979" height="4.72979" transform="rotate(-180 92.2705 36.7297)" fill="#7D53FA"/>
<rect x="87.0002" y="42" width="4.72979" height="4.72979" transform="rotate(-180 87.0002 42)" fill="#7D53FA"/>
<rect x="87.0002" y="36.7297" width="4.72979" height="4.72979" transform="rotate(-180 87.0002 36.7297)" fill="#7D53FA"/>
<rect x="81.7297" y="36.7297" width="4.72979" height="4.72979" transform="rotate(-180 81.7297 36.7297)" fill="#7D53FA"/>
</g>
<g filter="url(#filter1_d_11_483)">
<rect x="20" y="350" width="82.2705" height="34" rx="5" fill="#898988" shape-rendering="crispEdges"/>
<rect x="20.5" y="350.5" width="81.2705" height="33" rx="4.5" stroke="#111111" shape-rendering="crispEdges"/>
<path d="M38.1041 370H32.5041V363H33.9041V368.6H36.7041V364.4H35.3041V363H38.1041V370ZM43.0014 367.2H41.6014V364.4H40.2014V363H43.0014V367.2ZM50.6959 370H49.2959V364.4H45.0959V363H50.6959V370ZM58.3932 370H52.7932V368.6H56.9932V364.4H54.1932V365.8H55.5932V367.2H52.7932V363H58.3932V370ZM67.4904 370H66.0904V364.4H63.2904V370H60.4904V368.6H61.8904V363H67.4904V370Z" fill="#050505"/>
<rect x="92.2705" y="366.73" width="4.72979" height="4.72979" transform="rotate(-180 92.2705 366.73)" fill="#7D53FA"/>
<rect x="87.0002" y="372" width="4.72979" height="4.72979" transform="rotate(-180 87.0002 372)" fill="#7D53FA"/>
<rect x="87.0002" y="366.73" width="4.72979" height="4.72979" transform="rotate(-180 87.0002 366.73)" fill="#7D53FA"/>
<rect x="81.7297" y="366.73" width="4.72979" height="4.72979" transform="rotate(-180 81.7297 366.73)" fill="#7D53FA"/>
</g>
<g filter="url(#filter2_d_11_483)">
<rect x="20" y="75" width="76.4207" height="34" rx="5" fill="#EEEEEE" shape-rendering="crispEdges"/>
<rect x="20.5" y="75.5" width="75.4207" height="33" rx="4.5" stroke="#111111" shape-rendering="crispEdges"/>
<path d="M38.1041 95H32.5041V88H33.9041V93.6H36.7041V89.4H35.3041V88H38.1041V95ZM43.0014 92.2H41.6014V89.4H40.2014V88H43.0014V92.2ZM50.6959 95H49.2959V89.4H45.0959V88H50.6959V95ZM58.3932 95H52.7932V93.6H56.9932V89.4H54.1932V90.8H55.5932V92.2H52.7932V88H58.3932V95ZM67.4904 95H66.0904V89.4H63.2904V95H60.4904V93.6H61.8904V88H67.4904V95Z" fill="#050505"/>
<rect x="77" y="87.2896" width="4.45576" height="4.45576" fill="#7D53FA"/>
<rect x="81.9651" y="87.2896" width="4.45576" height="4.45576" fill="#7D53FA"/>
<rect x="81.9651" y="92.2546" width="4.45576" height="4.45576" fill="#7D53FA"/>
<rect x="77" y="92.2546" width="4.45576" height="4.45576" fill="#7D53FA"/>
</g>
<g filter="url(#filter3_d_11_483)">
<rect x="20" y="405" width="76.4207" height="34" rx="5" fill="#898988" shape-rendering="crispEdges"/>
<rect x="20.5" y="405.5" width="75.4207" height="33" rx="4.5" stroke="#111111" shape-rendering="crispEdges"/>
<path d="M38.1041 425H32.5041V418H33.9041V423.6H36.7041V419.4H35.3041V418H38.1041V425ZM43.0014 422.2H41.6014V419.4H40.2014V418H43.0014V422.2ZM50.6959 425H49.2959V419.4H45.0959V418H50.6959V425ZM58.3932 425H52.7932V423.6H56.9932V419.4H54.1932V420.8H55.5932V422.2H52.7932V418H58.3932V425ZM67.4904 425H66.0904V419.4H63.2904V425H60.4904V423.6H61.8904V418H67.4904V425Z" fill="#050505"/>
<rect x="77" y="417.29" width="4.45576" height="4.45576" fill="#7D53FA"/>
<rect x="81.9651" y="417.29" width="4.45576" height="4.45576" fill="#7D53FA"/>
<rect x="81.9651" y="422.255" width="4.45576" height="4.45576" fill="#7D53FA"/>
<rect x="77" y="422.255" width="4.45576" height="4.45576" fill="#7D53FA"/>
</g>
<g filter="url(#filter4_d_11_483)">
<rect x="20" y="130" width="75.9869" height="34" rx="5" fill="#EEEEEE" shape-rendering="crispEdges"/>
<rect x="20.5" y="130.5" width="74.9869" height="33" rx="4.5" stroke="#111111" shape-rendering="crispEdges"/>
<path d="M38.1041 150H32.5041V143H33.9041V148.6H36.7041V144.4H35.3041V143H38.1041V150ZM43.0014 147.2H41.6014V144.4H40.2014V143H43.0014V147.2ZM50.6959 150H49.2959V144.4H45.0959V143H50.6959V150ZM58.3932 150H52.7932V148.6H56.9932V144.4H54.1932V145.8H55.5932V147.2H52.7932V143H58.3932V150ZM67.4904 150H66.0904V144.4H63.2904V150H60.4904V148.6H61.8904V143H67.4904V150Z" fill="#050505"/>
<rect x="77" y="140.138" width="4.25057" height="4.25057" fill="#7D53FA"/>
<rect x="77" y="144.875" width="4.25057" height="4.25057" fill="#7D53FA"/>
<rect x="77" y="149.611" width="4.25057" height="4.25057" fill="#7D53FA"/>
<rect x="81.7363" y="149.611" width="4.25057" height="4.25057" fill="#7D53FA"/>
</g>
<g filter="url(#filter5_d_11_483)">
<rect x="20" y="460" width="75.9869" height="34" rx="5" fill="#898988" shape-rendering="crispEdges"/>
<rect x="20.5" y="460.5" width="74.9869" height="33" rx="4.5" stroke="#111111" shape-rendering="crispEdges"/>
<path d="M38.1041 480H32.5041V473H33.9041V478.6H36.7041V474.4H35.3041V473H38.1041V480ZM43.0014 477.2H41.6014V474.4H40.2014V473H43.0014V477.2ZM50.6959 480H49.2959V474.4H45.0959V473H50.6959V480ZM58.3932 480H52.7932V478.6H56.9932V474.4H54.1932V475.8H55.5932V477.2H52.7932V473H58.3932V480ZM67.4904 480H66.0904V474.4H63.2904V480H60.4904V478.6H61.8904V473H67.4904V480Z" fill="#050505"/>
<rect x="77" y="470.138" width="4.25057" height="4.25057" fill="#7D53FA"/>
<rect x="77" y="474.875" width="4.25057" height="4.25057" fill="#7D53FA"/>
<rect x="77" y="479.611" width="4.25057" height="4.25057" fill="#7D53FA"/>
<rect x="81.7363" y="479.611" width="4.25057" height="4.25057" fill="#7D53FA"/>
</g>
<g filter="url(#filter6_d_11_483)">
<rect x="20" y="185" width="75.7514" height="34" rx="5" fill="#EEEEEE" shape-rendering="crispEdges"/>
<rect x="20.5" y="185.5" width="74.7514" height="33" rx="4.5" stroke="#111111" shape-rendering="crispEdges"/>
<path d="M38.1041 205H32.5041V198H33.9041V203.6H36.7041V199.4H35.3041V198H38.1041V205ZM43.0014 202.2H41.6014V199.4H40.2014V198H43.0014V202.2ZM50.6959 205H49.2959V199.4H45.0959V198H50.6959V205ZM58.3932 205H52.7932V203.6H56.9932V199.4H54.1932V200.8H55.5932V202.2H52.7932V198H58.3932V205ZM67.4904 205H66.0904V199.4H63.2904V205H60.4904V203.6H61.8904V198H67.4904V205Z" fill="#050505"/>
<rect x="81.6123" y="195.318" width="4.13918" height="4.13918" fill="#7D53FA"/>
<rect x="81.6123" y="199.93" width="4.13918" height="4.13918" fill="#7D53FA"/>
<rect x="81.6123" y="204.542" width="4.13918" height="4.13918" fill="#7D53FA"/>
<rect x="77" y="204.542" width="4.13918" height="4.13918" fill="#7D53FA"/>
</g>
<g filter="url(#filter7_d_11_483)">
<rect x="20" y="515" width="75.7514" height="34" rx="5" fill="#898988" shape-rendering="crispEdges"/>
<rect x="20.5" y="515.5" width="74.7514" height="33" rx="4.5" stroke="#111111" shape-rendering="crispEdges"/>
<path d="M38.1041 535H32.5041V528H33.9041V533.6H36.7041V529.4H35.3041V528H38.1041V535ZM43.0014 532.2H41.6014V529.4H40.2014V528H43.0014V532.2ZM50.6959 535H49.2959V529.4H45.0959V528H50.6959V535ZM58.3932 535H52.7932V533.6H56.9932V529.4H54.1932V530.8H55.5932V532.2H52.7932V528H58.3932V535ZM67.4904 535H66.0904V529.4H63.2904V535H60.4904V533.6H61.8904V528H67.4904V535Z" fill="#050505"/>
<rect x="81.6123" y="525.318" width="4.13918" height="4.13918" fill="#7D53FA"/>
<rect x="81.6123" y="529.93" width="4.13918" height="4.13918" fill="#7D53FA"/>
<rect x="81.6123" y="534.542" width="4.13918" height="4.13918" fill="#7D53FA"/>
<rect x="77" y="534.542" width="4.13918" height="4.13918" fill="#7D53FA"/>
</g>
<g filter="url(#filter8_d_11_483)">
<rect x="20" y="240" width="77" height="34" rx="5" fill="#EEEEEE" shape-rendering="crispEdges"/>
<rect x="20.5" y="240.5" width="76" height="33" rx="4.5" stroke="#111111" shape-rendering="crispEdges"/>
<path d="M38.1041 260H32.5041V253H33.9041V258.6H36.7041V254.4H35.3041V253H38.1041V260ZM43.0014 257.2H41.6014V254.4H40.2014V253H43.0014V257.2ZM50.6959 260H49.2959V254.4H45.0959V253H50.6959V260ZM58.3932 260H52.7932V258.6H56.9932V254.4H54.1932V255.8H55.5932V257.2H52.7932V253H58.3932V260ZM67.4904 260H66.0904V254.4H63.2904V260H60.4904V258.6H61.8904V253H67.4904V260Z" fill="#050505"/>
<rect x="81.7297" y="249.365" width="4.72973" height="4.72973" transform="rotate(90 81.7297 249.365)" fill="#7D53FA"/>
<rect x="87" y="254.635" width="4.72973" height="4.72973" transform="rotate(90 87 254.635)" fill="#7D53FA"/>
<rect x="87" y="259.905" width="4.72973" height="4.72973" transform="rotate(90 87 259.905)" fill="#7D53FA"/>
<rect x="81.7297" y="254.635" width="4.72973" height="4.72973" transform="rotate(90 81.7297 254.635)" fill="#7D53FA"/>
</g>
<g filter="url(#filter9_d_11_483)">
<rect x="20" y="570" width="77" height="34" rx="5" fill="#898988" shape-rendering="crispEdges"/>
<rect x="20.5" y="570.5" width="76" height="33" rx="4.5" stroke="#111111" shape-rendering="crispEdges"/>
<path d="M38.1041 590H32.5041V583H33.9041V588.6H36.7041V584.4H35.3041V583H38.1041V590ZM43.0014 587.2H41.6014V584.4H40.2014V583H43.0014V587.2ZM50.6959 590H49.2959V584.4H45.0959V583H50.6959V590ZM58.3932 590H52.7932V588.6H56.9932V584.4H54.1932V585.8H55.5932V587.2H52.7932V583H58.3932V590ZM67.4904 590H66.0904V584.4H63.2904V590H60.4904V588.6H61.8904V583H67.4904V590Z" fill="#050505"/>
<rect x="81.7297" y="579.365" width="4.72973" height="4.72973" transform="rotate(90 81.7297 579.365)" fill="#7D53FA"/>
<rect x="87" y="584.635" width="4.72973" height="4.72973" transform="rotate(90 87 584.635)" fill="#7D53FA"/>
<rect x="87" y="589.905" width="4.72973" height="4.72973" transform="rotate(90 87 589.905)" fill="#7D53FA"/>
<rect x="81.7297" y="584.635" width="4.72973" height="4.72973" transform="rotate(90 81.7297 584.635)" fill="#7D53FA"/>
</g>
<g filter="url(#filter10_d_11_483)">
<rect x="20" y="295" width="76.6895" height="34" rx="5" fill="#EEEEEE" shape-rendering="crispEdges"/>
<rect x="20.5" y="295.5" width="75.6895" height="33" rx="4.5" stroke="#111111" shape-rendering="crispEdges"/>
<path d="M38.1041 315H32.5041V308H33.9041V313.6H36.7041V309.4H35.3041V308H38.1041V315ZM43.0014 312.2H41.6014V309.4H40.2014V308H43.0014V312.2ZM50.6959 315H49.2959V309.4H45.0959V308H50.6959V315ZM58.3932 315H52.7932V313.6H56.9932V309.4H54.1932V310.8H55.5932V312.2H52.7932V308H58.3932V315ZM67.4904 315H66.0904V309.4H63.2904V315H60.4904V313.6H61.8904V308H67.4904V315Z" fill="#050505"/>
<rect x="81.6118" y="314.779" width="4.52019" height="4.52019" transform="rotate(89.4779 81.6118 314.779)" fill="#7D53FA"/>
<rect x="86.6025" y="309.697" width="4.52019" height="4.52019" transform="rotate(89.4779 86.6025 309.697)" fill="#7D53FA"/>
<rect x="86.5566" y="304.66" width="4.52019" height="4.52019" transform="rotate(89.4779 86.5566 304.66)" fill="#7D53FA"/>
<rect x="81.5659" y="309.742" width="4.52019" height="4.52019" transform="rotate(89.4779 81.5659 309.742)" fill="#7D53FA"/>
</g>
<g filter="url(#filter11_d_11_483)">
<rect x="20" y="625" width="76.6895" height="34" rx="5" fill="#898988" shape-rendering="crispEdges"/>
<rect x="20.5" y="625.5" width="75.6895" height="33" rx="4.5" stroke="#111111" shape-rendering="crispEdges"/>
<path d="M38.1041 645H32.5041V638H33.9041V643.6H36.7041V639.4H35.3041V638H38.1041V645ZM43.0014 642.2H41.6014V639.4H40.2014V638H43.0014V642.2ZM50.6959 645H49.2959V639.4H45.0959V638H50.6959V645ZM58.3932 645H52.7932V643.6H56.9932V639.4H54.1932V640.8H55.5932V642.2H52.7932V638H58.3932V645ZM67.4904 645H66.0904V639.4H63.2904V645H60.4904V643.6H61.8904V638H67.4904V645Z" fill="#050505"/>
<rect x="81.6118" y="644.779" width="4.52019" height="4.52019" transform="rotate(89.4779 81.6118 644.779)" fill="#7D53FA"/>
<rect x="86.6025" y="639.697" width="4.52019" height="4.52019" transform="rotate(89.4779 86.6025 639.697)" fill="#7D53FA"/>
<rect x="86.5566" y="634.66" width="4.52019" height="4.52019" transform="rotate(89.4779 86.5566 634.66)" fill="#7D53FA"/>
<rect x="81.5659" y="639.742" width="4.52019" height="4.52019" transform="rotate(89.4779 81.5659 639.742)" fill="#7D53FA"/>
</g>
<defs>
<filter id="filter0_d_11_483" x="20" y="20" width="86.2705" height="38" filterUnits="userSpaceOnUse" color-interpolation-filters="sRGB">
<feFlood flood-opacity="0" result="BackgroundImageFix"/>
<feColorMatrix in="SourceAlpha" type="matrix" values="0 0 0 0 0 0 0 0 0 0 0 0 0 0 0 0 0 0 127 0" result="hardAlpha"/>
<feOffset dx="4" dy="4"/>
<feComposite in2="hardAlpha" operator="out"/>
<feColorMatrix type="matrix" values="0 0 0 0 0 0 0 0 0 0 0 0 0 0 0 0 0 0 1 0"/>
<feBlend mode="normal" in2="BackgroundImageFix" result="effect1_dropShadow_11_483"/>
<feBlend mode="normal" in="SourceGraphic" in2="effect1_dropShadow_11_483" result="shape"/>
</filter>
<filter id="filter1_d_11_483" x="20" y="350" width="86.2705" height="38" filterUnits="userSpaceOnUse" color-interpolation-filters="sRGB">
<feFlood flood-opacity="0" result="BackgroundImageFix"/>
<feColorMatrix in="SourceAlpha" type="matrix" values="0 0 0 0 0 0 0 0 0 0 0 0 0 0 0 0 0 0 127 0" result="hardAlpha"/>
<feOffset dx="4" dy="4"/>
<feComposite in2="hardAlpha" operator="out"/>
<feColorMatrix type="matrix" values="0 0 0 0 0 0 0 0 0 0 0 0 0 0 0 0 0 0 1 0"/>
<feBlend mode="normal" in2="BackgroundImageFix" result="effect1_dropShadow_11_483"/>
<feBlend mode="normal" in="SourceGraphic" in2="effect1_dropShadow_11_483" result="shape"/>
</filter>
<filter id="filter2_d_11_483" x="20" y="75" width="80.4207" height="38" filterUnits="userSpaceOnUse" color-interpolation-filters="sRGB">
<feFlood flood-opacity="0" result="BackgroundImageFix"/>
<feColorMatrix in="SourceAlpha" type="matrix" values="0 0 0 0 0 0 0 0 0 0 0 0 0 0 0 0 0 0 127 0" result="hardAlpha"/>
<feOffset dx="4" dy="4"/>
<feComposite in2="hardAlpha" operator="out"/>
<feColorMatrix type="matrix" values="0 0 0 0 0 0 0 0 0 0 0 0 0 0 0 0 0 0 1 0"/>
<feBlend mode="normal" in2="BackgroundImageFix" result="effect1_dropShadow_11_483"/>
<feBlend mode="normal" in="SourceGraphic" in2="effect1_dropShadow_11_483" result="shape"/>
</filter>
<filter id="filter3_d_11_483" x="20" y="405" width="80.4207" height="38" filterUnits="userSpaceOnUse" color-interpolation-filters="sRGB">
<feFlood flood-opacity="0" result="BackgroundImageFix"/>
<feColorMatrix in="SourceAlpha" type="matrix" values="0 0 0 0 0 0 0 0 0 0 0 0 0 0 0 0 0 0 127 0" result="hardAlpha"/>
<feOffset dx="4" dy="4"/>
<feComposite in2="hardAlpha" operator="out"/>
<feColorMatrix type="matrix" values="0 0 0 0 0 0 0 0 0 0 0 0 0 0 0 0 0 0 1 0"/>
<feBlend mode="normal" in2="BackgroundImageFix" result="effect1_dropShadow_11_483"/>
<feBlend mode="normal" in="SourceGraphic" in2="effect1_dropShadow_11_483" result="shape"/>
</filter>
<filter id="filter4_d_11_483" x="20" y="130" width="79.9868" height="38" filterUnits="userSpaceOnUse" color-interpolation-filters="sRGB">
<feFlood flood-opacity="0" result="BackgroundImageFix"/>
<feColorMatrix in="SourceAlpha" type="matrix" values="0 0 0 0 0 0 0 0 0 0 0 0 0 0 0 0 0 0 127 0" result="hardAlpha"/>
<feOffset dx="4" dy="4"/>
<feComposite in2="hardAlpha" operator="out"/>
<feColorMatrix type="matrix" values="0 0 0 0 0 0 0 0 0 0 0 0 0 0 0 0 0 0 1 0"/>
<feBlend mode="normal" in2="BackgroundImageFix" result="effect1_dropShadow_11_483"/>
<feBlend mode="normal" in="SourceGraphic" in2="effect1_dropShadow_11_483" result="shape"/>
</filter>
<filter id="filter5_d_11_483" x="20" y="460" width="79.9868" height="38" filterUnits="userSpaceOnUse" color-interpolation-filters="sRGB">
<feFlood flood-opacity="0" result="BackgroundImageFix"/>
<feColorMatrix in="SourceAlpha" type="matrix" values="0 0 0 0 0 0 0 0 0 0 0 0 0 0 0 0 0 0 127 0" result="hardAlpha"/>
<feOffset dx="4" dy="4"/>
<feComposite in2="hardAlpha" operator="out"/>
<feColorMatrix type="matrix" values="0 0 0 0 0 0 0 0 0 0 0 0 0 0 0 0 0 0 1 0"/>
<feBlend mode="normal" in2="BackgroundImageFix" result="effect1_dropShadow_11_483"/>
<feBlend mode="normal" in="SourceGraphic" in2="effect1_dropShadow_11_483" result="shape"/>
</filter>
<filter id="filter6_d_11_483" x="20" y="185" width="79.7515" height="38" filterUnits="userSpaceOnUse" color-interpolation-filters="sRGB">
<feFlood flood-opacity="0" result="BackgroundImageFix"/>
<feColorMatrix in="SourceAlpha" type="matrix" values="0 0 0 0 0 0 0 0 0 0 0 0 0 0 0 0 0 0 127 0" result="hardAlpha"/>
<feOffset dx="4" dy="4"/>
<feComposite in2="hardAlpha" operator="out"/>
<feColorMatrix type="matrix" values="0 0 0 0 0 0 0 0 0 0 0 0 0 0 0 0 0 0 1 0"/>
<feBlend mode="normal" in2="BackgroundImageFix" result="effect1_dropShadow_11_483"/>
<feBlend mode="normal" in="SourceGraphic" in2="effect1_dropShadow_11_483" result="shape"/>
</filter>
<filter id="filter7_d_11_483" x="20" y="515" width="79.7515" height="38" filterUnits="userSpaceOnUse" color-interpolation-filters="sRGB">
<feFlood flood-opacity="0" result="BackgroundImageFix"/>
<feColorMatrix in="SourceAlpha" type="matrix" values="0 0 0 0 0 0 0 0 0 0 0 0 0 0 0 0 0 0 127 0" result="hardAlpha"/>
<feOffset dx="4" dy="4"/>
<feComposite in2="hardAlpha" operator="out"/>
<feColorMatrix type="matrix" values="0 0 0 0 0 0 0 0 0 0 0 0 0 0 0 0 0 0 1 0"/>
<feBlend mode="normal" in2="BackgroundImageFix" result="effect1_dropShadow_11_483"/>
<feBlend mode="normal" in="SourceGraphic" in2="effect1_dropShadow_11_483" result="shape"/>
</filter>
<filter id="filter8_d_11_483" x="20" y="240" width="81" height="38" filterUnits="userSpaceOnUse" color-interpolation-filters="sRGB">
<feFlood flood-opacity="0" result="BackgroundImageFix"/>
<feColorMatrix in="SourceAlpha" type="matrix" values="0 0 0 0 0 0 0 0 0 0 0 0 0 0 0 0 0 0 127 0" result="hardAlpha"/>
<feOffset dx="4" dy="4"/>
<feComposite in2="hardAlpha" operator="out"/>
<feColorMatrix type="matrix" values="0 0 0 0 0 0 0 0 0 0 0 0 0 0 0 0 0 0 1 0"/>
<feBlend mode="normal" in2="BackgroundImageFix" result="effect1_dropShadow_11_483"/>
<feBlend mode="normal" in="SourceGraphic" in2="effect1_dropShadow_11_483" result="shape"/>
</filter>
<filter id="filter9_d_11_483" x="20" y="570" width="81" height="38" filterUnits="userSpaceOnUse" color-interpolation-filters="sRGB">
<feFlood flood-opacity="0" result="BackgroundImageFix"/>
<feColorMatrix in="SourceAlpha" type="matrix" values="0 0 0 0 0 0 0 0 0 0 0 0 0 0 0 0 0 0 127 0" result="hardAlpha"/>
<feOffset dx="4" dy="4"/>
<feComposite in2="hardAlpha" operator="out"/>
<feColorMatrix type="matrix" values="0 0 0 0 0 0 0 0 0 0 0 0 0 0 0 0 0 0 1 0"/>
<feBlend mode="normal" in2="BackgroundImageFix" result="effect1_dropShadow_11_483"/>
<feBlend mode="normal" in="SourceGraphic" in2="effect1_dropShadow_11_483" result="shape"/>
</filter>
<filter id="filter10_d_11_483" x="20" y="295" width="80.6895" height="38" filterUnits="userSpaceOnUse" color-interpolation-filters="sRGB">
<feFlood flood-opacity="0" result="BackgroundImageFix"/>
<feColorMatrix in="SourceAlpha" type="matrix" values="0 0 0 0 0 0 0 0 0 0 0 0 0 0 0 0 0 0 127 0" result="hardAlpha"/>
<feOffset dx="4" dy="4"/>
<feComposite in2="hardAlpha" operator="out"/>
<feColorMatrix type="matrix" values="0 0 0 0 0 0 0 0 0 0 0 0 0 0 0 0 0 0 1 0"/>
<feBlend mode="normal" in2="BackgroundImageFix" result="effect1_dropShadow_11_483"/>
<feBlend mode="normal" in="SourceGraphic" in2="effect1_dropShadow_11_483" result="shape"/>
</filter>
<filter id="filter11_d_11_483" x="20" y="625" width="80.6895" height="38" filterUnits="userSpaceOnUse" color-interpolation-filters="sRGB">
<feFlood flood-opacity="0" result="BackgroundImageFix"/>
<feColorMatrix in="SourceAlpha" type="matrix" values="0 0 0 0 0 0 0 0 0 0 0 0 0 0 0 0 0 0 127 0" result="hardAlpha"/>
<feOffset dx="4" dy="4"/>
<feComposite in2="hardAlpha" operator="out"/>
<feColorMatrix type="matrix" values="0 0 0 0 0 0 0 0 0 0 0 0 0 0 0 0 0 0 1 0"/>
<feBlend mode="normal" in2="BackgroundImageFix" result="effect1_dropShadow_11_483"/>
<feBlend mode="normal" in="SourceGraphic" in2="effect1_dropShadow_11_483" result="shape"/>
</filter>
</defs>
</svg>
