<svg width="184" height="245" viewBox="0 0 184 245" fill="none" xmlns="http://www.w3.org/2000/svg">
<rect x="0.0691606" y="0.0691606" width="183.691" height="244.862" rx="0.622445" stroke="#8A38F5" stroke-width="0.138321" stroke-dasharray="1.38 0.69"/>
<rect x="2.76636" y="2.76636" width="178.27" height="46.173" rx="12.7255" fill="#7D53FA"/>
<g filter="url(#filter0_d_6_304)">
<path d="M125.939 9.68237H132.336V16.0797H125.939V9.68237ZM133.047 16.0797H139.444V9.68237H133.047V16.0797ZM133.047 23.1881H139.444V16.7907H133.047V23.1881Z" fill="#FAFAF9"/>
<path d="M76.2579 9.68237H82.6553V16.0797H76.2579V9.68237ZM83.3662 16.0797H89.7636V9.68237H83.3662V16.0797ZM90.4746 16.0797H96.8719V9.68237H90.4746V16.0797ZM97.5829 16.0797H103.98V9.68237H97.5829V16.0797ZM90.4746 23.1881H96.8719V16.7907H90.4746V23.1881ZM90.4746 30.2964H96.8719V23.899H90.4746V30.2964ZM90.4746 37.4047H96.8719V31.0073H90.4746V37.4047Z" fill="#FAFAF9"/>
<path d="M12.449 9.68237H18.8463V16.0797H12.449V9.68237ZM19.5573 16.0797H25.9547V9.68237H19.5573V16.0797ZM26.6656 16.0797H33.063V9.68237H26.6656V16.0797ZM33.7739 16.0797H40.1713V9.68237H33.7739V16.0797ZM12.449 23.1881H18.8463V16.7907H12.449V23.1881ZM33.7739 23.1881H40.1713V16.7907H33.7739V23.1881ZM12.449 30.2964H18.8463V23.899H12.449V30.2964ZM33.7739 30.2964H40.1713V23.899H33.7739V30.2964ZM19.5573 37.4047H25.9547V31.0073H19.5573V37.4047ZM26.6656 37.4047H33.063V31.0073H26.6656V37.4047Z" fill="#FAFAF9"/>
<path d="M108.245 9.68237H114.642V16.0797H108.245V9.68237ZM115.353 16.0797H121.75V9.68237H115.353V16.0797ZM115.353 23.1881H121.75V16.7907H115.353V23.1881ZM115.353 30.2964H121.75V23.899H115.353V30.2964ZM101.136 37.4047H107.534V31.0073H101.136V37.4047ZM108.245 37.4047H114.642V31.0073H108.245V37.4047ZM115.353 37.4047H121.75V31.0073H115.353V37.4047Z" fill="#FAFAF9"/>
<path d="M143.631 9.68237H150.029V16.0797H143.631V9.68237ZM164.956 16.0797H171.354V9.68237H164.956V16.0797ZM143.631 23.1881H150.029V16.7907H143.631V23.1881ZM150.74 23.1881H157.137V16.7907H150.74V23.1881ZM164.956 23.1881H171.354V16.7907H164.956V23.1881ZM143.631 30.2964H150.029V23.899H143.631V30.2964ZM157.848 30.2964H164.245V23.899H157.848V30.2964ZM143.631 37.4047H150.029V31.0073H143.631V37.4047ZM164.956 37.4047H171.354V31.0073H164.956V37.4047Z" fill="#FAFAF9"/>
<path d="M44.3223 9.68237H50.7197V16.0797H44.3223V9.68237ZM51.4306 16.0797H57.828V9.68237H51.4306V16.0797ZM58.539 16.0797H64.9363V9.68237H58.539V16.0797ZM65.6473 16.0797H72.0446V9.68237H65.6473V16.0797ZM65.6473 23.1881H72.0446V16.7907H65.6473V23.1881ZM44.3223 30.2964H50.7197V23.899H44.3223V30.2964ZM58.539 30.2964H64.9363V23.899H58.539V30.2964ZM65.6473 30.2964H72.0446V23.899H65.6473V30.2964ZM44.3223 37.4047H50.7197V31.0073H44.3223V37.4047ZM51.4306 44.513H57.828V38.1157H51.4306V44.513ZM44.3223 44.513H50.7197V38.1157H44.3223V44.513Z" fill="#FAFAF9"/>
</g>
<rect x="2.76636" y="67.1978" width="178.27" height="46.173" rx="12.7255" fill="#7D53FA"/>
<g filter="url(#filter1_d_6_304)">
<path d="M125.939 74.1138H132.336V80.5111H125.939V74.1138ZM133.047 80.5111H139.444V74.1138H133.047V80.5111ZM133.047 87.6194H139.444V81.2221H133.047V87.6194Z" fill="#36EF79"/>
<path d="M76.2579 74.1138H82.6553V80.5111H76.2579V74.1138ZM83.3662 80.5111H89.7636V74.1138H83.3662V80.5111ZM90.4746 80.5111H96.8719V74.1138H90.4746V80.5111ZM97.5829 80.5111H103.98V74.1138H97.5829V80.5111ZM90.4746 87.6194H96.8719V81.2221H90.4746V87.6194ZM90.4746 94.7278H96.8719V88.3304H90.4746V94.7278ZM90.4746 101.836H96.8719V95.4387H90.4746V101.836Z" fill="#36EF79"/>
<path d="M12.449 74.1138H18.8463V80.5111H12.449V74.1138ZM19.5573 80.5111H25.9547V74.1138H19.5573V80.5111ZM26.6656 80.5111H33.063V74.1138H26.6656V80.5111ZM33.7739 80.5111H40.1713V74.1138H33.7739V80.5111ZM12.449 87.6194H18.8463V81.2221H12.449V87.6194ZM33.7739 87.6194H40.1713V81.2221H33.7739V87.6194ZM12.449 94.7278H18.8463V88.3304H12.449V94.7278ZM33.7739 94.7278H40.1713V88.3304H33.7739V94.7278ZM19.5573 101.836H25.9547V95.4387H19.5573V101.836ZM26.6656 101.836H33.063V95.4387H26.6656V101.836Z" fill="#36EF79"/>
<path d="M108.245 74.1138H114.642V80.5111H108.245V74.1138ZM115.353 80.5111H121.75V74.1138H115.353V80.5111ZM115.353 87.6194H121.75V81.2221H115.353V87.6194ZM115.353 94.7278H121.75V88.3304H115.353V94.7278ZM101.136 101.836H107.534V95.4387H101.136V101.836ZM108.245 101.836H114.642V95.4387H108.245V101.836ZM115.353 101.836H121.75V95.4387H115.353V101.836Z" fill="#36EF79"/>
<path d="M143.631 74.1138H150.029V80.5111H143.631V74.1138ZM164.956 80.5111H171.354V74.1138H164.956V80.5111ZM143.631 87.6194H150.029V81.2221H143.631V87.6194ZM150.74 87.6194H157.137V81.2221H150.74V87.6194ZM164.956 87.6194H171.354V81.2221H164.956V87.6194ZM143.631 94.7278H150.029V88.3304H143.631V94.7278ZM157.848 94.7278H164.245V88.3304H157.848V94.7278ZM143.631 101.836H150.029V95.4387H143.631V101.836ZM164.956 101.836H171.354V95.4387H164.956V101.836Z" fill="#36EF79"/>
<path d="M44.3223 74.1138H50.7197V80.5111H44.3223V74.1138ZM51.4306 80.5111H57.828V74.1138H51.4306V80.5111ZM58.539 80.5111H64.9363V74.1138H58.539V80.5111ZM65.6473 80.5111H72.0446V74.1138H65.6473V80.5111ZM65.6473 87.6194H72.0446V81.2221H65.6473V87.6194ZM44.3223 94.7278H50.7197V88.3304H44.3223V94.7278ZM58.539 94.7278H64.9363V88.3304H58.539V94.7278ZM65.6473 94.7278H72.0446V88.3304H65.6473V94.7278ZM44.3223 101.836H50.7197V95.4387H44.3223V101.836ZM51.4306 108.944H57.828V102.547H51.4306V108.944ZM44.3223 108.944H50.7197V102.547H44.3223V108.944Z" fill="#36EF79"/>
</g>
<rect x="2.76636" y="131.629" width="178.27" height="46.173" rx="12.7255" fill="#7D53FA"/>
<g filter="url(#filter2_d_6_304)">
<path d="M125.939 138.545H132.336V144.943H125.939V138.545ZM133.047 144.943H139.444V138.545H133.047V144.943ZM133.047 152.051H139.444V145.653H133.047V152.051Z" fill="#FD982E"/>
<path d="M76.2579 138.545H82.6553V144.943H76.2579V138.545ZM83.3662 144.943H89.7636V138.545H83.3662V144.943ZM90.4746 144.943H96.8719V138.545H90.4746V144.943ZM97.5829 144.943H103.98V138.545H97.5829V144.943ZM90.4746 152.051H96.8719V145.653H90.4746V152.051ZM90.4746 159.159H96.8719V152.762H90.4746V159.159ZM90.4746 166.267H96.8719V159.87H90.4746V166.267Z" fill="#FD982E"/>
<path d="M12.449 138.545H18.8463V144.943H12.449V138.545ZM19.5573 144.943H25.9547V138.545H19.5573V144.943ZM26.6656 144.943H33.063V138.545H26.6656V144.943ZM33.7739 144.943H40.1713V138.545H33.7739V144.943ZM12.449 152.051H18.8463V145.653H12.449V152.051ZM33.7739 152.051H40.1713V145.653H33.7739V152.051ZM12.449 159.159H18.8463V152.762H12.449V159.159ZM33.7739 159.159H40.1713V152.762H33.7739V159.159ZM19.5573 166.267H25.9547V159.87H19.5573V166.267ZM26.6656 166.267H33.063V159.87H26.6656V166.267Z" fill="#FD982E"/>
<path d="M108.245 138.545H114.642V144.943H108.245V138.545ZM115.353 144.943H121.75V138.545H115.353V144.943ZM115.353 152.051H121.75V145.653H115.353V152.051ZM115.353 159.159H121.75V152.762H115.353V159.159ZM101.136 166.267H107.534V159.87H101.136V166.267ZM108.245 166.267H114.642V159.87H108.245V166.267ZM115.353 166.267H121.75V159.87H115.353V166.267Z" fill="#FD982E"/>
<path d="M143.631 138.545H150.029V144.943H143.631V138.545ZM164.956 144.943H171.354V138.545H164.956V144.943ZM143.631 152.051H150.029V145.653H143.631V152.051ZM150.74 152.051H157.137V145.653H150.74V152.051ZM164.956 152.051H171.354V145.653H164.956V152.051ZM143.631 159.159H150.029V152.762H143.631V159.159ZM157.848 159.159H164.245V152.762H157.848V159.159ZM143.631 166.267H150.029V159.87H143.631V166.267ZM164.956 166.267H171.354V159.87H164.956V166.267Z" fill="#FD982E"/>
<path d="M44.3223 138.545H50.7197V144.943H44.3223V138.545ZM51.4306 144.943H57.828V138.545H51.4306V144.943ZM58.539 144.943H64.9363V138.545H58.539V144.943ZM65.6473 144.943H72.0446V138.545H65.6473V144.943ZM65.6473 152.051H72.0446V145.653H65.6473V152.051ZM44.3223 159.159H50.7197V152.762H44.3223V159.159ZM58.539 159.159H64.9363V152.762H58.539V159.159ZM65.6473 159.159H72.0446V152.762H65.6473V159.159ZM44.3223 166.267H50.7197V159.87H44.3223V166.267ZM51.4306 173.376H57.828V166.978H51.4306V173.376ZM44.3223 173.376H50.7197V166.978H44.3223V173.376Z" fill="#FD982E"/>
</g>
<rect x="2.76636" y="196.061" width="178.27" height="46.173" rx="12.7255" fill="#EEEEEE"/>
<g filter="url(#filter3_d_6_304)">
<path d="M125.939 202.977H132.336V209.374H125.939V202.977ZM133.047 209.374H139.444V202.977H133.047V209.374ZM133.047 216.482H139.444V210.085H133.047V216.482Z" fill="#7D53FA"/>
<path d="M76.2579 202.977H82.6553V209.374H76.2579V202.977ZM83.3662 209.374H89.7636V202.977H83.3662V209.374ZM90.4746 209.374H96.8719V202.977H90.4746V209.374ZM97.5829 209.374H103.98V202.977H97.5829V209.374ZM90.4746 216.482H96.8719V210.085H90.4746V216.482ZM90.4746 223.591H96.8719V217.193H90.4746V223.591ZM90.4746 230.699H96.8719V224.302H90.4746V230.699Z" fill="#7D53FA"/>
<path d="M12.449 202.977H18.8463V209.374H12.449V202.977ZM19.5573 209.374H25.9547V202.977H19.5573V209.374ZM26.6656 209.374H33.063V202.977H26.6656V209.374ZM33.7739 209.374H40.1713V202.977H33.7739V209.374ZM12.449 216.482H18.8463V210.085H12.449V216.482ZM33.7739 216.482H40.1713V210.085H33.7739V216.482ZM12.449 223.591H18.8463V217.193H12.449V223.591ZM33.7739 223.591H40.1713V217.193H33.7739V223.591ZM19.5573 230.699H25.9547V224.302H19.5573V230.699ZM26.6656 230.699H33.063V224.302H26.6656V230.699Z" fill="#7D53FA"/>
<path d="M108.245 202.977H114.642V209.374H108.245V202.977ZM115.353 209.374H121.75V202.977H115.353V209.374ZM115.353 216.482H121.75V210.085H115.353V216.482ZM115.353 223.591H121.75V217.193H115.353V223.591ZM101.136 230.699H107.534V224.302H101.136V230.699ZM108.245 230.699H114.642V224.302H108.245V230.699ZM115.353 230.699H121.75V224.302H115.353V230.699Z" fill="#7D53FA"/>
<path d="M143.631 202.977H150.029V209.374H143.631V202.977ZM164.956 209.374H171.354V202.977H164.956V209.374ZM143.631 216.482H150.029V210.085H143.631V216.482ZM150.74 216.482H157.137V210.085H150.74V216.482ZM164.956 216.482H171.354V210.085H164.956V216.482ZM143.631 223.591H150.029V217.193H143.631V223.591ZM157.848 223.591H164.245V217.193H157.848V223.591ZM143.631 230.699H150.029V224.302H143.631V230.699ZM164.956 230.699H171.354V224.302H164.956V230.699Z" fill="#7D53FA"/>
<path d="M44.3223 202.977H50.7197V209.374H44.3223V202.977ZM51.4306 209.374H57.828V202.977H51.4306V209.374ZM58.539 209.374H64.9363V202.977H58.539V209.374ZM65.6473 209.374H72.0446V202.977H65.6473V209.374ZM65.6473 216.482H72.0446V210.085H65.6473V216.482ZM44.3223 223.591H50.7197V217.193H44.3223V223.591ZM58.539 223.591H64.9363V217.193H58.539V223.591ZM65.6473 223.591H72.0446V217.193H65.6473V223.591ZM44.3223 230.699H50.7197V224.302H44.3223V230.699ZM51.4306 237.807H57.828V231.41H51.4306V237.807ZM44.3223 237.807H50.7197V231.41H44.3223V237.807Z" fill="#7D53FA"/>
</g>
<defs>
<filter id="filter0_d_6_304" x="12.449" y="9.68237" width="159.458" height="35.3839" filterUnits="userSpaceOnUse" color-interpolation-filters="sRGB">
<feFlood flood-opacity="0" result="BackgroundImageFix"/>
<feColorMatrix in="SourceAlpha" type="matrix" values="0 0 0 0 0 0 0 0 0 0 0 0 0 0 0 0 0 0 127 0" result="hardAlpha"/>
<feOffset dx="0.553285" dy="0.553285"/>
<feComposite in2="hardAlpha" operator="out"/>
<feColorMatrix type="matrix" values="0 0 0 0 0 0 0 0 0 0 0 0 0 0 0 0 0 0 1 0"/>
<feBlend mode="normal" in2="BackgroundImageFix" result="effect1_dropShadow_6_304"/>
<feBlend mode="normal" in="SourceGraphic" in2="effect1_dropShadow_6_304" result="shape"/>
</filter>
<filter id="filter1_d_6_304" x="12.449" y="74.1138" width="159.458" height="35.3839" filterUnits="userSpaceOnUse" color-interpolation-filters="sRGB">
<feFlood flood-opacity="0" result="BackgroundImageFix"/>
<feColorMatrix in="SourceAlpha" type="matrix" values="0 0 0 0 0 0 0 0 0 0 0 0 0 0 0 0 0 0 127 0" result="hardAlpha"/>
<feOffset dx="0.553285" dy="0.553285"/>
<feComposite in2="hardAlpha" operator="out"/>
<feColorMatrix type="matrix" values="0 0 0 0 0 0 0 0 0 0 0 0 0 0 0 0 0 0 1 0"/>
<feBlend mode="normal" in2="BackgroundImageFix" result="effect1_dropShadow_6_304"/>
<feBlend mode="normal" in="SourceGraphic" in2="effect1_dropShadow_6_304" result="shape"/>
</filter>
<filter id="filter2_d_6_304" x="12.449" y="138.545" width="159.458" height="35.3839" filterUnits="userSpaceOnUse" color-interpolation-filters="sRGB">
<feFlood flood-opacity="0" result="BackgroundImageFix"/>
<feColorMatrix in="SourceAlpha" type="matrix" values="0 0 0 0 0 0 0 0 0 0 0 0 0 0 0 0 0 0 127 0" result="hardAlpha"/>
<feOffset dx="0.553285" dy="0.553285"/>
<feComposite in2="hardAlpha" operator="out"/>
<feColorMatrix type="matrix" values="0 0 0 0 0 0 0 0 0 0 0 0 0 0 0 0 0 0 1 0"/>
<feBlend mode="normal" in2="BackgroundImageFix" result="effect1_dropShadow_6_304"/>
<feBlend mode="normal" in="SourceGraphic" in2="effect1_dropShadow_6_304" result="shape"/>
</filter>
<filter id="filter3_d_6_304" x="12.449" y="202.977" width="159.735" height="35.6605" filterUnits="userSpaceOnUse" color-interpolation-filters="sRGB">
<feFlood flood-opacity="0" result="BackgroundImageFix"/>
<feColorMatrix in="SourceAlpha" type="matrix" values="0 0 0 0 0 0 0 0 0 0 0 0 0 0 0 0 0 0 127 0" result="hardAlpha"/>
<feOffset dx="0.829927" dy="0.829927"/>
<feComposite in2="hardAlpha" operator="out"/>
<feColorMatrix type="matrix" values="0 0 0 0 0.968627 0 0 0 0 0.584314 0 0 0 0 0.192157 0 0 0 1 0"/>
<feBlend mode="normal" in2="BackgroundImageFix" result="effect1_dropShadow_6_304"/>
<feBlend mode="normal" in="SourceGraphic" in2="effect1_dropShadow_6_304" result="shape"/>
</filter>
</defs>
</svg>
