<svg width="108" height="734" viewBox="0 0 108 734" fill="none" xmlns="http://www.w3.org/2000/svg">
<rect x="0.5" y="0.5" width="107" height="733" rx="4.5" stroke="#8A38F5" stroke-dasharray="10 5"/>
<path d="M42.1041 34H36.5041V27H37.9041V32.6H40.7041V28.4H39.3041V27H42.1041V34ZM47.0014 31.2H45.6014V28.4H44.2014V27H47.0014V31.2ZM54.6959 34H53.2959V28.4H49.0959V27H54.6959V34ZM62.3932 34H56.7932V32.6H60.9932V28.4H58.1932V29.8H59.5932V31.2H56.7932V27H62.3932V34ZM71.4904 34H70.0904V28.4H67.2904V34H64.4904V32.6H65.8904V27H71.4904V34Z" fill="#050505"/>
<rect x="15.5" y="70.5" width="77" height="33" rx="4.5" fill="#EEEEEE"/>
<rect x="15.5" y="70.5" width="77" height="33" rx="4.5" stroke="#111111"/>
<path d="M42.1041 90H36.5041V83H37.9041V88.6H40.7041V84.4H39.3041V83H42.1041V90ZM47.0014 87.2H45.6014V84.4H44.2014V83H47.0014V87.2ZM54.6959 90H53.2959V84.4H49.0959V83H54.6959V90ZM62.3932 90H56.7932V88.6H60.9932V84.4H58.1932V85.8H59.5932V87.2H56.7932V83H62.3932V90ZM71.4904 90H70.0904V84.4H67.2904V90H64.4904V88.6H65.8904V83H71.4904V90Z" fill="#050505"/>
<g filter="url(#filter0_d_6_233)">
<rect x="15" y="126" width="78" height="34" rx="5" fill="#EEEEEE" shape-rendering="crispEdges"/>
<rect x="15.5" y="126.5" width="77" height="33" rx="4.5" stroke="#111111" shape-rendering="crispEdges"/>
<path d="M42.1041 146H36.5041V139H37.9041V144.6H40.7041V140.4H39.3041V139H42.1041V146ZM47.0014 143.2H45.6014V140.4H44.2014V139H47.0014V143.2ZM54.6959 146H53.2959V140.4H49.0959V139H54.6959V146ZM62.3932 146H56.7932V144.6H60.9932V140.4H58.1932V141.8H59.5932V143.2H56.7932V139H62.3932V146ZM71.4904 146H70.0904V140.4H67.2904V146H64.4904V144.6H65.8904V139H71.4904V146Z" fill="#050505"/>
</g>
<g filter="url(#filter1_i_6_233)">
<rect x="15" y="182" width="78" height="34" rx="5" fill="#EEEEEE"/>
<rect x="15.5" y="182.5" width="77" height="33" rx="4.5" stroke="#111111"/>
<path d="M42.1041 202H36.5041V195H37.9041V200.6H40.7041V196.4H39.3041V195H42.1041V202ZM47.0014 199.2H45.6014V196.4H44.2014V195H47.0014V199.2ZM54.6959 202H53.2959V196.4H49.0959V195H54.6959V202ZM62.3932 202H56.7932V200.6H60.9932V196.4H58.1932V197.8H59.5932V199.2H56.7932V195H62.3932V202ZM71.4904 202H70.0904V196.4H67.2904V202H64.4904V200.6H65.8904V195H71.4904V202Z" fill="#050505"/>
</g>
<rect x="25.5" y="238.5" width="57" height="33" rx="4.5" stroke="#050505"/>
<path d="M42.1041 258H36.5041V251H37.9041V256.6H40.7041V252.4H39.3041V251H42.1041V258ZM47.0014 255.2H45.6014V252.4H44.2014V251H47.0014V255.2ZM54.6959 258H53.2959V252.4H49.0959V251H54.6959V258ZM62.3932 258H56.7932V256.6H60.9932V252.4H58.1932V253.8H59.5932V255.2H56.7932V251H62.3932V258ZM71.4904 258H70.0904V252.4H67.2904V258H64.4904V256.6H65.8904V251H71.4904V258Z" fill="#050505"/>
<rect x="15.5" y="294.5" width="77" height="33" rx="4.5" fill="#36EF79"/>
<rect x="15.5" y="294.5" width="77" height="33" rx="4.5" stroke="#111111"/>
<path d="M42.1041 314H36.5041V307H37.9041V312.6H40.7041V308.4H39.3041V307H42.1041V314ZM47.0014 311.2H45.6014V308.4H44.2014V307H47.0014V311.2ZM54.6959 314H53.2959V308.4H49.0959V307H54.6959V314ZM62.3932 314H56.7932V312.6H60.9932V308.4H58.1932V309.8H59.5932V311.2H56.7932V307H62.3932V314ZM71.4904 314H70.0904V308.4H67.2904V314H64.4904V312.6H65.8904V307H71.4904V314Z" fill="#050505"/>
<g filter="url(#filter2_d_6_233)">
<rect x="15" y="350" width="78" height="34" rx="5" fill="#36EF79" shape-rendering="crispEdges"/>
<rect x="15.5" y="350.5" width="77" height="33" rx="4.5" stroke="#111111" shape-rendering="crispEdges"/>
<path d="M42.1041 370H36.5041V363H37.9041V368.6H40.7041V364.4H39.3041V363H42.1041V370ZM47.0014 367.2H45.6014V364.4H44.2014V363H47.0014V367.2ZM54.6959 370H53.2959V364.4H49.0959V363H54.6959V370ZM62.3932 370H56.7932V368.6H60.9932V364.4H58.1932V365.8H59.5932V367.2H56.7932V363H62.3932V370ZM71.4904 370H70.0904V364.4H67.2904V370H64.4904V368.6H65.8904V363H71.4904V370Z" fill="#050505"/>
</g>
<g filter="url(#filter3_i_6_233)">
<rect x="15" y="406" width="78" height="34" rx="5" fill="#36EF79"/>
<rect x="15.5" y="406.5" width="77" height="33" rx="4.5" stroke="#111111"/>
<path d="M42.1041 426H36.5041V419H37.9041V424.6H40.7041V420.4H39.3041V419H42.1041V426ZM47.0014 423.2H45.6014V420.4H44.2014V419H47.0014V423.2ZM54.6959 426H53.2959V420.4H49.0959V419H54.6959V426ZM62.3932 426H56.7932V424.6H60.9932V420.4H58.1932V421.8H59.5932V423.2H56.7932V419H62.3932V426ZM71.4904 426H70.0904V420.4H67.2904V426H64.4904V424.6H65.8904V419H71.4904V426Z" fill="#050505"/>
</g>
<rect x="25.5" y="462.5" width="57" height="33" rx="4.5" stroke="#36EF79"/>
<path d="M42.1041 482H36.5041V475H37.9041V480.6H40.7041V476.4H39.3041V475H42.1041V482ZM47.0014 479.2H45.6014V476.4H44.2014V475H47.0014V479.2ZM54.6959 482H53.2959V476.4H49.0959V475H54.6959V482ZM62.3932 482H56.7932V480.6H60.9932V476.4H58.1932V477.8H59.5932V479.2H56.7932V475H62.3932V482ZM71.4904 482H70.0904V476.4H67.2904V482H64.4904V480.6H65.8904V475H71.4904V482Z" fill="#050505"/>
<path d="M42.1041 538H36.5041V531H37.9041V536.6H40.7041V532.4H39.3041V531H42.1041V538ZM47.0014 535.2H45.6014V532.4H44.2014V531H47.0014V535.2ZM54.6959 538H53.2959V532.4H49.0959V531H54.6959V538ZM62.3932 538H56.7932V536.6H60.9932V532.4H58.1932V533.8H59.5932V535.2H56.7932V531H62.3932V538ZM71.4904 538H70.0904V532.4H67.2904V538H64.4904V536.6H65.8904V531H71.4904V538Z" fill="#636363"/>
<path d="M42.1041 594H36.5041V587H37.9041V592.6H40.7041V588.4H39.3041V587H42.1041V594ZM47.0014 591.2H45.6014V588.4H44.2014V587H47.0014V591.2ZM54.6959 594H53.2959V588.4H49.0959V587H54.6959V594ZM62.3932 594H56.7932V592.6H60.9932V588.4H58.1932V589.8H59.5932V591.2H56.7932V587H62.3932V594ZM71.4904 594H70.0904V588.4H67.2904V594H64.4904V592.6H65.8904V587H71.4904V594Z" fill="#FD982E"/>
<path d="M42.1041 650H36.5041V643H37.9041V648.6H40.7041V644.4H39.3041V643H42.1041V650ZM47.0014 647.2H45.6014V644.4H44.2014V643H47.0014V647.2ZM54.6959 650H53.2959V644.4H49.0959V643H54.6959V650ZM62.3932 650H56.7932V648.6H60.9932V644.4H58.1932V645.8H59.5932V647.2H56.7932V643H62.3932V650ZM71.4904 650H70.0904V644.4H67.2904V650H64.4904V648.6H65.8904V643H71.4904V650Z" fill="#7248E8"/>
<path d="M42.1041 706H36.5041V699H37.9041V704.6H40.7041V700.4H39.3041V699H42.1041V706ZM47.0014 703.2H45.6014V700.4H44.2014V699H47.0014V703.2ZM54.6959 706H53.2959V700.4H49.0959V699H54.6959V706ZM62.3932 706H56.7932V704.6H60.9932V700.4H58.1932V701.8H59.5932V703.2H56.7932V699H62.3932V706ZM71.4904 706H70.0904V700.4H67.2904V706H64.4904V704.6H65.8904V699H71.4904V706Z" fill="#EEEEEE"/>
<defs>
<filter id="filter0_d_6_233" x="15" y="126" width="82" height="38" filterUnits="userSpaceOnUse" color-interpolation-filters="sRGB">
<feFlood flood-opacity="0" result="BackgroundImageFix"/>
<feColorMatrix in="SourceAlpha" type="matrix" values="0 0 0 0 0 0 0 0 0 0 0 0 0 0 0 0 0 0 127 0" result="hardAlpha"/>
<feOffset dx="4" dy="4"/>
<feComposite in2="hardAlpha" operator="out"/>
<feColorMatrix type="matrix" values="0 0 0 0 0 0 0 0 0 0 0 0 0 0 0 0 0 0 1 0"/>
<feBlend mode="normal" in2="BackgroundImageFix" result="effect1_dropShadow_6_233"/>
<feBlend mode="normal" in="SourceGraphic" in2="effect1_dropShadow_6_233" result="shape"/>
</filter>
<filter id="filter1_i_6_233" x="15" y="182" width="80" height="36" filterUnits="userSpaceOnUse" color-interpolation-filters="sRGB">
<feFlood flood-opacity="0" result="BackgroundImageFix"/>
<feBlend mode="normal" in="SourceGraphic" in2="BackgroundImageFix" result="shape"/>
<feColorMatrix in="SourceAlpha" type="matrix" values="0 0 0 0 0 0 0 0 0 0 0 0 0 0 0 0 0 0 127 0" result="hardAlpha"/>
<feMorphology radius="10" operator="erode" in="SourceAlpha" result="effect1_innerShadow_6_233"/>
<feOffset dx="2" dy="2"/>
<feComposite in2="hardAlpha" operator="arithmetic" k2="-1" k3="1"/>
<feColorMatrix type="matrix" values="0 0 0 0 0 0 0 0 0 0 0 0 0 0 0 0 0 0 1 0"/>
<feBlend mode="normal" in2="shape" result="effect1_innerShadow_6_233"/>
</filter>
<filter id="filter2_d_6_233" x="15" y="350" width="82" height="38" filterUnits="userSpaceOnUse" color-interpolation-filters="sRGB">
<feFlood flood-opacity="0" result="BackgroundImageFix"/>
<feColorMatrix in="SourceAlpha" type="matrix" values="0 0 0 0 0 0 0 0 0 0 0 0 0 0 0 0 0 0 127 0" result="hardAlpha"/>
<feOffset dx="4" dy="4"/>
<feComposite in2="hardAlpha" operator="out"/>
<feColorMatrix type="matrix" values="0 0 0 0 0 0 0 0 0 0 0 0 0 0 0 0 0 0 1 0"/>
<feBlend mode="normal" in2="BackgroundImageFix" result="effect1_dropShadow_6_233"/>
<feBlend mode="normal" in="SourceGraphic" in2="effect1_dropShadow_6_233" result="shape"/>
</filter>
<filter id="filter3_i_6_233" x="15" y="406" width="80" height="36" filterUnits="userSpaceOnUse" color-interpolation-filters="sRGB">
<feFlood flood-opacity="0" result="BackgroundImageFix"/>
<feBlend mode="normal" in="SourceGraphic" in2="BackgroundImageFix" result="shape"/>
<feColorMatrix in="SourceAlpha" type="matrix" values="0 0 0 0 0 0 0 0 0 0 0 0 0 0 0 0 0 0 127 0" result="hardAlpha"/>
<feMorphology radius="10" operator="erode" in="SourceAlpha" result="effect1_innerShadow_6_233"/>
<feOffset dx="2" dy="2"/>
<feComposite in2="hardAlpha" operator="arithmetic" k2="-1" k3="1"/>
<feColorMatrix type="matrix" values="0 0 0 0 0 0 0 0 0 0 0 0 0 0 0 0 0 0 1 0"/>
<feBlend mode="normal" in2="shape" result="effect1_innerShadow_6_233"/>
</filter>
</defs>
</svg>
